<?xml version="1.0" encoding="UTF-8"?>
<!DOCTYPE svg PUBLIC "-//W3C//DTD SVG 1.1//EN" "http://www.w3.org/Graphics/SVG/1.1/DTD/svg11.dtd">
<svg xmlns="http://www.w3.org/2000/svg" version="1.1" width="956px" height="1063px" style="shape-rendering:geometricPrecision; text-rendering:geometricPrecision; image-rendering:optimizeQuality; fill-rule:evenodd; clip-rule:evenodd" xmlns:xlink="http://www.w3.org/1999/xlink">
<g><path style="opacity:0.8" fill="#009229" d="M 449.5,-0.5 C 454.167,-0.5 458.833,-0.5 463.5,-0.5C 465.513,14.1464 467.513,14.1464 469.5,-0.5C 474.167,-0.5 478.833,-0.5 483.5,-0.5C 484.344,3.09907 484.677,6.76574 484.5,10.5C 485.5,10.5 486.5,10.5 487.5,10.5C 487.417,6.6648 488.083,2.99813 489.5,-0.5C 494.167,-0.5 498.833,-0.5 503.5,-0.5C 503.923,0.264561 504.257,1.09789 504.5,2C 503.381,5.76112 502.714,9.59445 502.5,13.5C 506.534,13.5045 510.534,13.8379 514.5,14.5C 514.293,11.8732 515.46,10.2065 518,9.5C 522.151,10.3865 526.318,11.2198 530.5,12C 531.763,13.7051 532.097,15.3718 531.5,17C 535.055,18.0427 538.555,19.2094 542,20.5C 542.093,15.9626 543.426,11.9626 546,8.5C 549.817,9.99533 553.65,11.4953 557.5,13C 558.125,15.8003 558.792,18.6336 559.5,21.5C 561.188,19.9706 562.521,18.1373 563.5,16C 567.682,15.3891 571.682,16.0558 575.5,18C 577.706,20.209 578.04,22.709 576.5,25.5C 576.833,26.5 577.5,27.1667 578.5,27.5C 579.851,24.8037 581.684,22.4704 584,20.5C 587.843,21.7259 591.677,23.0592 595.5,24.5C 595.854,29.018 594.52,33.1847 591.5,37C 594.39,38.0285 597.224,39.1952 600,40.5C 601.626,39.7113 603.126,38.7113 604.5,37.5C 608.5,39.5 612.5,41.5 616.5,43.5C 617.76,45.3529 617.76,47.1862 616.5,49C 618.699,50.6971 621.032,52.1971 623.5,53.5C 625.655,49.0011 627.989,44.6678 630.5,40.5C 634.465,42.6348 638.298,44.9681 642,47.5C 642.224,50.1105 641.724,52.6105 640.5,55C 641,55.5 641.5,56 642,56.5C 644.016,54.316 646.183,52.316 648.5,50.5C 650.918,51.4572 653.084,52.7905 655,54.5C 655.667,55.5 655.667,56.5 655,57.5C 649.746,66.3389 644.746,75.3389 640,84.5C 637.502,87.82 634.502,88.1533 631,85.5C 628.755,86.1371 626.588,86.9704 624.5,88C 620.873,94.0855 617.373,100.252 614,106.5C 612.933,107.191 611.766,107.691 610.5,108C 615.263,110.798 619.763,113.964 624,117.5C 624.244,125.81 620.41,128.31 612.5,125C 547.766,84.2387 478.432,74.2387 404.5,95C 381.17,102.667 359.17,113 338.5,126C 333.203,127.382 329.869,125.382 328.5,120C 328.862,118.775 329.362,117.609 330,116.5C 334.233,113.271 338.733,110.438 343.5,108C 341.324,107.837 339.491,107.004 338,105.5C 334.793,98.9137 330.959,92.747 326.5,87C 324.782,86.654 323.115,86.154 321.5,85.5C 319.038,87.0658 316.538,87.3992 314,86.5C 308.667,77.1667 303.333,67.8333 298,58.5C 297.333,57.1667 297.333,55.8333 298,54.5C 300.034,52.9684 302.201,51.6351 304.5,50.5C 306.858,52.0243 308.691,54.0243 310,56.5C 310.75,55.8742 311.584,55.3742 312.5,55C 310.658,52.304 310.325,49.4707 311.5,46.5C 315.007,44.246 318.673,42.246 322.5,40.5C 324.934,44.9318 327.1,49.5985 329,54.5C 331.5,52.6667 334,50.8333 336.5,49C 335.24,47.1862 335.24,45.3529 336.5,43.5C 340.5,41.5 344.5,39.5 348.5,37.5C 350.197,38.3636 351.363,39.6969 352,41.5C 355.122,40.2958 357.956,38.6291 360.5,36.5C 358.868,33.1863 357.201,29.853 355.5,26.5C 355.709,25.914 356.043,25.414 356.5,25C 360.461,23.4017 364.461,21.9017 368.5,20.5C 370.804,22.4311 372.638,24.7644 374,27.5C 374.75,26.8742 375.584,26.3742 376.5,26C 375.223,23.5341 375.223,21.0341 376.5,18.5C 380.701,16.3578 385.034,15.6911 389.5,16.5C 390.087,19.4057 391.754,21.0724 394.5,21.5C 394.336,18.8127 394.503,16.146 395,13.5C 399.284,10.427 403.951,9.42697 409,10.5C 409.297,13.914 409.964,17.2473 411,20.5C 413.66,19.1657 416.494,18.3324 419.5,18C 420.056,15.7635 421.056,13.7635 422.5,12C 426.652,11.0737 430.819,10.2404 435,9.5C 436.83,11.1465 438.663,12.8131 440.5,14.5C 443.722,13.2943 446.888,13.2943 450,14.5C 449.793,10.7116 449.293,6.87825 448.5,3C 448.648,1.74407 448.982,0.577401 449.5,-0.5 Z M 497.5,5.5 C 494.621,26.7241 497.954,46.8907 507.5,66C 502.183,65.9722 496.85,65.6389 491.5,65C 490.948,57.4754 490.115,49.9754 489,42.5C 483.095,35.1377 475.928,33.6377 467.5,38C 465.622,39.5429 464.122,41.3762 463,43.5C 461.609,50.7458 461.109,58.0791 461.5,65.5C 456.086,65.8178 450.752,65.8178 445.5,65.5C 454.96,46.0794 458.126,25.7461 455,4.5C 456.356,5.38017 457.856,5.71351 459.5,5.5C 458.74,15.3163 463.074,18.3163 472.5,14.5C 473.407,11.5788 473.74,8.57884 473.5,5.5C 475.144,5.71351 476.644,5.38017 478,4.5C 479.036,7.75271 479.703,11.086 480,14.5C 483.744,15.626 487.577,15.7927 491.5,15C 492.383,11.5505 493.216,8.05046 494,4.5C 495.011,5.33663 496.178,5.66997 497.5,5.5 Z M 430.5,13.5 C 432.167,13.5 433.833,13.5 435.5,13.5C 435.284,15.6807 436.117,17.3474 438,18.5C 441.057,17.5495 444.223,17.2161 447.5,17.5C 447.746,33.6957 444.246,49.029 437,63.5C 425.836,51.8384 418.336,38.1717 414.5,22.5C 417.625,22.1353 420.625,21.302 423.5,20C 424.406,18.3005 424.739,16.4672 424.5,14.5C 426.735,14.7947 428.735,14.4614 430.5,13.5 Z M 517.5,13.5 C 521.154,13.9422 524.821,14.2756 528.5,14.5C 528.5,16.5 528.5,18.5 528.5,20.5C 531.833,21.1667 535.167,21.8333 538.5,22.5C 534.613,38.2026 527.113,51.8692 516,63.5C 508.484,49.0889 504.984,33.7556 505.5,17.5C 508.777,17.2161 511.943,17.5495 515,18.5C 516.372,17.0899 517.205,15.4233 517.5,13.5 Z M 403.5,15.5 C 406.937,35.5408 415.604,53.0408 429.5,68C 424.36,69.7832 419.027,70.9498 413.5,71.5C 412.356,64.0499 409.69,57.2166 405.5,51C 396.889,45.5467 389.389,46.7134 383,54.5C 380.529,63.4483 381.696,71.9483 386.5,80C 381.276,82.6258 375.943,84.6258 370.5,86C 372.893,74.9271 373.059,63.7605 371,52.5C 369.063,43.9691 366.563,35.6358 363.5,27.5C 364.873,27.3433 366.207,27.51 367.5,28C 369.428,33.7404 373.095,35.0737 378.5,32C 379.416,31.6258 380.25,31.1258 381,30.5C 381.182,27.7737 381.682,25.1071 382.5,22.5C 383.293,22.0688 384.127,21.7355 385,21.5C 386.649,22.7861 387.815,24.4527 388.5,26.5C 392.639,27.8377 396.472,27.1711 400,24.5C 400.687,22.4325 400.52,20.4325 399.5,18.5C 400.624,17.1408 401.958,16.1408 403.5,15.5 Z M 548.5,15.5 C 549.583,15.5394 550.583,15.8728 551.5,16.5C 551.171,24.8463 555.171,28.3463 563.5,27C 564.429,24.6086 565.929,22.7753 568,21.5C 571.46,22.5938 572.293,24.7604 570.5,28C 570.759,29.2613 571.426,30.2613 572.5,31C 575,31.8333 577.5,32.6667 580,33.5C 582.386,31.7171 584.553,29.7171 586.5,27.5C 588,27.4528 589,28.1195 589.5,29.5C 585.93,36.111 583.43,43.111 582,50.5C 580.4,62.4885 580.067,74.4885 581,86.5C 576.025,84.2613 571.192,81.928 566.5,79.5C 568.882,73.8567 570.548,68.0233 571.5,62C 568.954,48.3656 561.287,44.3656 548.5,50C 543.075,56.0958 540.075,63.2625 539.5,71.5C 533.667,71.1249 528,69.9582 522.5,68C 536.887,53.3916 545.554,35.8916 548.5,15.5 Z M 431.5,74.5 C 433.903,73.8692 436.236,72.8692 438.5,71.5C 439.607,72.0219 440.774,72.3552 442,72.5C 450.113,71.1704 458.28,70.3371 466.5,70C 467.317,62.2457 467.817,54.4124 468,46.5C 471.142,41.0083 475.642,39.5083 481.5,42C 483.041,43.5793 484.208,45.4127 485,47.5C 485.333,54.8333 485.667,62.1667 486,69.5C 489.411,70.2931 492.911,70.7931 496.5,71C 474.75,70.8918 453.084,72.0585 431.5,74.5 Z M 346.5,41.5 C 348.489,42.4814 350.489,43.4814 352.5,44.5C 354.774,44.0298 356.774,43.0298 358.5,41.5C 363.411,56.5138 364.578,71.8472 362,87.5C 350.079,78.9136 340.246,68.4136 332.5,56C 334.754,54.6233 336.92,53.1233 339,51.5C 339.72,49.8876 339.554,48.3876 338.5,47C 341.407,45.3909 344.073,43.5576 346.5,41.5 Z M 593.5,41.5 C 597.625,45.2203 601.625,45.2203 605.5,41.5C 608.585,43.2443 611.585,45.0776 614.5,47C 613.446,48.3876 613.28,49.8876 614,51.5C 616.144,52.6461 617.977,54.1461 619.5,56C 612.802,68.534 603.468,78.7006 591.5,86.5C 588.492,71.3349 589.159,56.3349 593.5,41.5 Z M 307.5,62.5 C 311.39,61.8062 314.89,60.1396 318,57.5C 318.291,55.217 317.791,53.0503 316.5,51C 317.535,49.7263 318.702,48.5596 320,47.5C 327.529,66.1906 339.362,81.5239 355.5,93.5C 350.918,96.0407 346.418,98.7074 342,101.5C 338.793,94.9137 334.959,88.747 330.5,83C 326.05,81.1164 321.383,79.9498 316.5,79.5C 313.22,73.9379 310.22,68.2712 307.5,62.5 Z M 645.5,62.5 C 642.317,68.36 638.983,74.1933 635.5,80C 628.19,79.2098 622.356,81.7098 618,87.5C 616.074,92.3645 613.407,96.6978 610,100.5C 605.435,98.1339 600.935,95.6339 596.5,93C 613.479,81.6881 625.646,66.5214 633,47.5C 634.074,48.6184 635.24,49.6184 636.5,50.5C 635.248,52.7354 634.748,55.0687 635,57.5C 637.805,60.6525 641.305,62.3192 645.5,62.5 Z M 413.5,78.5 C 405.671,81.1271 397.671,83.4604 389.5,85.5C 390.929,84.7658 391.929,83.5991 392.5,82C 390.095,75.4506 388.095,68.7839 386.5,62C 388.185,54.1569 392.851,51.4902 400.5,54C 401.333,54.8333 402.167,55.6667 403,56.5C 405.396,62.9162 407.563,69.4162 409.5,76C 410.356,77.5947 411.689,78.428 413.5,78.5 Z M 563.5,85.5 C 555.311,83.4567 547.311,81.1234 539.5,78.5C 541.017,78.4894 542.184,77.8228 543,76.5C 544.866,69.7347 547.033,63.0681 549.5,56.5C 555.103,50.9921 560.27,51.3254 565,57.5C 565.109,65.7436 563.609,73.7436 560.5,81.5C 560.787,83.4433 561.787,84.7767 563.5,85.5 Z M 421.5,76.5 C 419.095,77.7682 416.428,78.4349 413.5,78.5C 415.838,76.9605 418.505,76.2938 421.5,76.5 Z M 364.5,92.5 C 365.5,93.1667 366.5,93.8333 367.5,94.5C 366.486,95.6737 365.153,96.3404 363.5,96.5C 364.234,95.2921 364.567,93.9587 364.5,92.5 Z M 588.5,92.5 C 588.433,93.9587 588.766,95.2921 589.5,96.5C 582.602,95.0121 582.268,93.6788 588.5,92.5 Z"/></g>
<g><path style="opacity:0.675" fill="#009229" d="M 233.5,124.5 C 249.837,124.333 266.17,124.5 282.5,125C 283.333,125.833 284.167,126.667 285,127.5C 286.581,133.723 286.915,140.056 286,146.5C 284.457,148.378 282.624,149.878 280.5,151C 281,151.5 281.5,152 282,152.5C 282.5,160.493 282.666,168.493 282.5,176.5C 288.171,176.112 293.504,177.279 298.5,180C 301.106,181.938 302.939,184.438 304,187.5C 305.136,183.757 306.47,180.09 308,176.5C 313.124,173.165 316.624,174.498 318.5,180.5C 317.091,183.727 316.091,187.06 315.5,190.5C 333.118,192.055 338.951,201.388 333,218.5C 332.534,223.314 330.034,225.481 325.5,225C 323.909,218.474 322.076,211.974 320,205.5C 315.528,204.894 311.862,206.561 309,210.5C 304.801,224.163 302.134,238.163 301,252.5C 303.412,248.587 306.912,246.587 311.5,246.5C 318.157,246.947 323.991,249.281 329,253.5C 333.215,264.255 333.215,274.922 329,285.5C 326.733,286.935 324.733,286.602 323,284.5C 320.775,276.886 317.608,269.719 313.5,263C 309.136,263.447 305.636,265.613 303,269.5C 300.014,272.982 298.181,276.982 297.5,281.5C 298.254,291.813 299.087,302.146 300,312.5C 302.005,310.2 304.172,310.2 306.5,312.5C 307.7,311.469 309.034,310.635 310.5,310C 308.477,305.661 309.811,302.828 314.5,301.5C 313.1,297.305 314.6,294.638 319,293.5C 320.261,293.759 321.261,294.426 322,295.5C 326.089,289.899 329.589,290.232 332.5,296.5C 331.187,298.518 331.853,299.685 334.5,300C 338.404,303.598 338.07,306.931 333.5,310C 336.359,313.761 335.692,316.761 331.5,319C 332.38,320.356 332.714,321.856 332.5,323.5C 337.547,323.376 339.38,325.709 338,330.5C 335.372,332.126 333.039,334.126 331,336.5C 329.194,341.446 326.861,346.112 324,350.5C 320.388,355.589 315.888,356.922 310.5,354.5C 309.328,354.919 308.328,355.585 307.5,356.5C 315.212,385.252 327.712,411.585 345,435.5C 345.986,439.873 344.319,442.873 340,444.5C 336.418,443.254 333.751,440.92 332,437.5C 313.327,409.853 300.661,379.52 294,346.5C 292.92,344.004 291.586,341.67 290,339.5C 289.944,361.504 290.444,383.504 291.5,405.5C 291.488,410.746 291.155,415.913 290.5,421C 299.757,429.594 309.59,437.427 320,444.5C 322.749,450.336 321.082,454.336 315,456.5C 306.246,451.873 298.079,446.373 290.5,440C 264.062,416.904 242.062,390.238 224.5,360C 213.835,349.506 201.168,344.673 186.5,345.5C 184.601,359.424 184.434,373.424 186,387.5C 184.587,389.414 182.753,390.747 180.5,391.5C 174.368,387.585 169.868,382.252 167,375.5C 162.119,364.65 160.119,353.316 161,341.5C 168.235,331.258 177.902,324.591 190,321.5C 196.697,323.182 202.697,326.182 208,330.5C 202.794,316.885 197.96,303.051 193.5,289C 193.833,288.667 194.167,288.333 194.5,288C 187.641,278.066 178.641,270.733 167.5,266C 165.833,265.333 164.167,265.333 162.5,266C 158.002,277.816 154.836,289.983 153,302.5C 151.192,304.396 149.025,304.896 146.5,304C 141.604,297.699 138.771,290.533 138,282.5C 137.333,275.167 137.333,267.833 138,260.5C 138.606,257.452 140.106,254.952 142.5,253C 149.733,247.883 157.733,244.716 166.5,243.5C 173.443,245.252 179.276,248.919 184,254.5C 182.395,240.557 180.895,226.557 179.5,212.5C 179.914,205.129 178.081,198.129 174,191.5C 171.31,187.31 167.81,183.976 163.5,181.5C 157.286,188.231 152.453,195.897 149,204.5C 146.333,207.167 143.667,207.167 141,204.5C 138.899,192.662 140.565,181.328 146,170.5C 147.543,168.622 149.376,167.122 151.5,166C 158.986,163.684 166.32,164.017 173.5,167C 175.378,168.543 176.878,170.376 178,172.5C 178.21,166.769 178.876,161.103 180,155.5C 184,150.167 188,150.167 192,155.5C 192.333,160.833 192.667,166.167 193,171.5C 196.421,165.34 201.755,162.34 209,162.5C 218.578,161.452 224.912,165.452 228,174.5C 230.442,180.6 231.775,186.933 232,193.5C 232.79,179.245 233.956,165.078 235.5,151C 232.943,150.315 231.109,148.815 230,146.5C 229.333,140.5 229.333,134.5 230,128.5C 230.69,126.65 231.856,125.316 233.5,124.5 Z M 235.5,129.5 C 250.17,129.333 264.837,129.5 279.5,130C 280.471,135.072 280.805,140.238 280.5,145.5C 265.496,145.667 250.496,145.5 235.5,145C 234.19,139.834 234.19,134.667 235.5,129.5 Z M 237.5,154.5 C 251.167,154.5 264.833,154.5 278.5,154.5C 279.332,161.486 279.499,168.486 279,175.5C 271.342,182.472 266.509,191.139 264.5,201.5C 268.439,211.197 273.606,211.864 280,203.5C 281.367,214.831 281.534,226.164 280.5,237.5C 271.328,234.552 262.328,235.052 253.5,239C 252.667,239.833 251.833,240.667 251,241.5C 248.891,233.239 243.725,228.239 235.5,226.5C 235.167,225.667 234.833,224.833 234.5,224C 235.857,200.856 236.857,177.689 237.5,154.5 Z M 183.5,155.5 C 188.921,155.655 190.921,158.488 189.5,164C 189.294,172.654 188.127,181.154 186,189.5C 184.346,185.698 182.846,181.864 181.5,178C 182.216,170.533 182.883,163.033 183.5,155.5 Z M 202.5,166.5 C 207.179,166.334 211.845,166.501 216.5,167C 218.676,167.163 220.509,167.996 222,169.5C 227.71,179.685 229.377,190.352 227,201.5C 220.771,188.271 211.938,177.105 200.5,168C 201.416,167.722 202.082,167.222 202.5,166.5 Z M 154.5,168.5 C 159.544,168.173 164.544,168.506 169.5,169.5C 159.591,179.733 151.257,191.066 144.5,203.5C 142.342,191.806 144.176,180.806 150,170.5C 151.622,169.901 153.122,169.234 154.5,168.5 Z M 196.5,170.5 C 200.021,172.102 203.021,174.435 205.5,177.5C 200.044,181.453 195.878,186.453 193,192.5C 191.576,184.69 192.743,177.357 196.5,170.5 Z M 171.5,172.5 C 172.822,172.33 173.989,172.663 175,173.5C 178.331,179.418 179.331,185.751 178,192.5C 175.54,186.408 171.373,181.908 165.5,179C 167.706,176.963 169.706,174.797 171.5,172.5 Z M 311.5,177.5 C 313.484,177.484 314.484,178.484 314.5,180.5C 313.099,187.559 310.266,193.892 306,199.5C 306.077,191.762 307.91,184.429 311.5,177.5 Z M 282.5,179.5 C 288.268,179.442 293.601,180.942 298.5,184C 288.03,187.8 279.197,193.967 272,202.5C 272.766,193.631 276.266,185.964 282.5,179.5 Z M 206.5,180.5 C 208.39,180.297 209.89,180.963 211,182.5C 216.125,189.246 220.625,196.412 224.5,204C 229.712,205.128 232.212,202.961 232,197.5C 231.957,208.156 231.79,218.823 231.5,229.5C 223.702,228.783 216.369,230.283 209.5,234C 204.543,240.414 201.043,247.581 199,255.5C 196.217,238.973 193.717,222.473 191.5,206C 194.102,195.944 199.102,187.444 206.5,180.5 Z M 297.5,187.5 C 298.5,187.5 299.5,187.5 300.5,187.5C 301.909,192.975 301.409,198.309 299,203.5C 298.233,198.695 296.4,194.361 293.5,190.5C 294.624,189.141 295.958,188.141 297.5,187.5 Z M 188.5,191.5 C 189.643,194.976 189.81,198.642 189,202.5C 187.312,198.911 187.145,195.244 188.5,191.5 Z M 289.5,191.5 C 294.084,197.077 296.417,203.577 296.5,211C 293.236,224.658 290.736,238.492 289,252.5C 287.291,249.582 285.458,246.748 283.5,244C 284,243.5 284.5,243 285,242.5C 284.943,228.841 284.61,215.175 284,201.5C 283.727,199.899 283.227,198.399 282.5,197C 284.903,195.147 287.236,193.314 289.5,191.5 Z M 182.5,192.5 C 184.865,195.913 185.031,199.58 183,203.5C 182.501,199.848 182.335,196.182 182.5,192.5 Z M 318.5,195.5 C 318.735,194.903 319.235,194.57 320,194.5C 324.188,195.253 327.521,197.253 330,200.5C 331.113,207.715 330.446,214.715 328,221.5C 326.488,212.12 323.321,203.454 318.5,195.5 Z M 313.5,195.5 C 315.339,196.508 316.672,198.008 317.5,200C 309.566,206.376 308.233,204.876 313.5,195.5 Z M 188.5,208.5 C 190.754,226.828 193.754,245.162 197.5,263.5C 196.811,265.444 196.311,267.444 196,269.5C 194,266.833 192,264.167 190,261.5C 186.517,244.3 184.017,226.967 182.5,209.5C 184.735,209.795 186.735,209.461 188.5,208.5 Z M 298.5,218.5 C 299.708,219.234 301.041,219.567 302.5,219.5C 299.895,234.91 297.062,250.244 294,265.5C 292.686,263.731 291.853,261.731 291.5,259.5C 292.998,245.674 295.332,232.008 298.5,218.5 Z M 246.5,275.5 C 237.907,260.067 226.574,246.9 212.5,236C 217.441,233.999 222.607,233.165 228,233.5C 231.5,233.667 235,233.833 238.5,234C 246.721,242.623 249.554,252.79 247,264.5C 245.792,254.871 242.626,246.037 237.5,238C 232.058,236.128 226.725,236.294 221.5,238.5C 231.309,247.144 239.476,257.144 246,268.5C 246.497,270.81 246.663,273.143 246.5,275.5 Z M 209.5,239.5 C 214.052,241.713 218.052,244.713 221.5,248.5C 212.945,255.26 207.111,263.927 204,274.5C 199.916,265.813 200.249,257.147 205,248.5C 206.033,245.216 207.533,242.216 209.5,239.5 Z M 263.5,241.5 C 268.297,241.121 272.964,241.621 277.5,243C 267.749,251.431 260.249,261.597 255,273.5C 254.495,269.486 255.495,265.819 258,262.5C 261.579,256.089 266.079,250.422 271.5,245.5C 267.135,244.298 262.802,244.465 258.5,246C 256.538,250.093 254.704,254.259 253,258.5C 252.001,249.797 255.501,244.13 263.5,241.5 Z M 279.5,245.5 C 287.124,252.212 289.624,260.545 287,270.5C 285.185,266.204 282.852,262.204 280,258.5C 278.062,255.894 275.562,254.061 272.5,253C 274.361,249.975 276.694,247.475 279.5,245.5 Z M 163.5,246.5 C 165.199,246.34 166.866,246.506 168.5,247C 158.017,263.616 152.017,281.783 150.5,301.5C 149.178,301.67 148.011,301.337 147,300.5C 141.153,287.387 139.486,273.72 142,259.5C 143.5,256.667 145.667,254.5 148.5,253C 153.477,250.517 158.477,248.35 163.5,246.5 Z M 189.5,276.5 C 182.683,269.339 174.516,264.339 165,261.5C 165.977,256.552 168.311,252.218 172,248.5C 176.967,252.466 181.634,256.799 186,261.5C 187.638,266.386 188.805,271.386 189.5,276.5 Z M 309.5,251.5 C 315.502,250.212 321.002,251.546 326,255.5C 328.324,263.349 328.991,271.349 328,279.5C 327.71,281.044 327.044,282.377 326,283.5C 322.828,271.485 317.328,260.819 309.5,251.5 Z M 222.5,251.5 C 226.195,253.678 229.528,256.511 232.5,260C 231.584,260.374 230.75,260.874 230,261.5C 229.272,285.928 227.939,310.261 226,334.5C 217.907,317.817 211.074,300.651 205.5,283C 207.649,270.532 213.315,260.032 222.5,251.5 Z M 299.5,268.5 C 298.623,261.922 300.79,256.589 306,252.5C 308.19,254.388 310.023,256.555 311.5,259C 306.481,260.994 302.481,264.161 299.5,268.5 Z M 233.5,268.5 C 237.022,273.688 240.689,278.854 244.5,284C 250.34,286.725 255.173,285.558 259,280.5C 261.658,272.504 265.824,265.504 271.5,259.5C 276.817,264.126 280.65,269.792 283,276.5C 283.701,286.838 284.034,297.171 284,307.5C 280.946,303.64 276.946,301.64 272,301.5C 264.35,302.605 257.184,305.105 250.5,309C 247.769,311.626 245.936,314.793 245,318.5C 242.632,330.016 243.299,341.35 247,352.5C 249.528,359.181 254.028,361.014 260.5,358C 261.126,357.25 261.626,356.416 262,355.5C 263.92,345.484 266.92,335.818 271,326.5C 276.055,328.865 280.388,332.198 284,336.5C 285.204,340.716 285.87,345.049 286,349.5C 287.013,371.504 287.679,393.504 288,415.5C 265.11,392.625 246.11,366.958 231,338.5C 231.038,315.135 231.871,291.802 233.5,268.5 Z M 250.5,273.5 C 249.378,271.712 249.211,269.712 250,267.5C 251.612,269.456 251.778,271.456 250.5,273.5 Z M 192.5,271.5 C 195.528,273.339 196.028,275.672 194,278.5C 193.338,276.187 192.838,273.854 192.5,271.5 Z M 291.5,281.5 C 292.5,281.5 293.5,281.5 294.5,281.5C 295.011,295.535 296.011,309.535 297.5,323.5C 297.423,325.299 296.923,326.966 296,328.5C 293.14,324.685 291.807,320.352 292,315.5C 290.511,304.117 290.345,292.784 291.5,281.5 Z M 228.5,347.5 C 222.072,342.244 216.572,336.244 212,329.5C 206.54,317.119 201.873,304.452 198,291.5C 196.794,288.153 197.794,285.82 201,284.5C 202,285.833 203,287.167 204,288.5C 210.522,308.913 218.689,328.58 228.5,347.5 Z M 323.5,300.5 C 325.086,301.148 326.753,301.648 328.5,302C 328,302.5 327.5,303 327,303.5C 325.601,302.773 324.101,302.273 322.5,302C 323.056,301.617 323.389,301.117 323.5,300.5 Z M 266.5,308.5 C 268.857,308.337 271.19,308.503 273.5,309C 264.672,322.643 258.672,337.476 255.5,353.5C 252.751,350.436 251.251,346.77 251,342.5C 250.161,333.78 250.495,325.113 252,316.5C 256.397,312.888 261.23,310.221 266.5,308.5 Z M 322.5,312.5 C 319.956,312.104 317.789,312.771 316,314.5C 315.5,314 315,313.5 314.5,313C 316.667,312.167 318.167,310.667 319,308.5C 319.69,310.35 320.856,311.684 322.5,312.5 Z M 290.5,334.5 C 285.144,327.976 278.477,323.143 270.5,320C 272.5,317 274.5,314 276.5,311C 281.121,313.272 284.955,316.772 288,321.5C 289.899,325.621 290.732,329.954 290.5,334.5 Z M 287.5,312.5 C 288.573,313.251 288.74,314.251 288,315.5C 286.272,314.648 286.105,313.648 287.5,312.5 Z M 322.5,312.5 C 323.5,312.5 324.5,312.5 325.5,312.5C 325.92,314.674 325.92,316.674 325.5,318.5C 324.794,316.296 323.794,314.296 322.5,312.5 Z M 302.5,331.5 C 303.829,325.516 303.829,319.85 302.5,314.5C 304.23,315.026 305.564,316.026 306.5,317.5C 305.042,322.206 303.709,326.873 302.5,331.5 Z M 309.5,321.5 C 310.386,320.224 311.386,320.224 312.5,321.5C 313.833,322.62 314.333,323.953 314,325.5C 312.629,323.959 311.129,322.625 309.5,321.5 Z M 317.5,321.5 C 319.663,322.362 321.663,322.696 323.5,322.5C 320.203,326.342 318.203,326.009 317.5,321.5 Z M 307.5,323.5 C 309.391,325.442 311.391,327.275 313.5,329C 310.433,333.855 307.933,339.022 306,344.5C 305.448,337.41 305.948,330.41 307.5,323.5 Z M 185.5,325.5 C 186.376,325.369 187.043,325.702 187.5,326.5C 184.595,335.261 182.761,344.261 182,353.5C 181.407,364.846 181.574,376.179 182.5,387.5C 179.386,386.909 176.886,385.242 175,382.5C 166.769,369.912 163.436,356.245 165,341.5C 170.611,334.364 177.444,329.031 185.5,325.5 Z M 218.5,350.5 C 209.08,344.472 198.746,341.472 187.5,341.5C 188.083,335.918 189.583,330.584 192,325.5C 198.169,328.002 204.003,331.169 209.5,335C 213.155,339.812 216.155,344.979 218.5,350.5 Z M 315.5,333.5 C 316.88,330.448 319.214,328.282 322.5,327C 324.289,326.48 325.956,326.813 327.5,328C 322.757,328.25 318.757,330.083 315.5,333.5 Z M 330.5,326.5 C 332.308,326.491 333.975,326.991 335.5,328C 333.241,329.715 331.074,331.548 329,333.5C 326.421,338.992 323.588,344.325 320.5,349.5C 318.936,351.603 316.936,352.436 314.5,352C 320.413,348.027 324.246,342.527 326,335.5C 327.308,333.359 328.808,331.359 330.5,329.5C 329.975,328.808 329.308,328.308 328.5,328C 329.416,327.722 330.082,327.222 330.5,326.5 Z M 302.5,331.5 C 300.365,337.945 301.365,343.778 305.5,349C 306.448,349.483 307.448,349.649 308.5,349.5C 309.556,345.832 310.722,342.165 312,338.5C 312.697,336.416 313.864,334.749 315.5,333.5C 313.104,339.849 310.604,346.182 308,352.5C 301.245,348.309 298.911,342.309 301,334.5C 301.232,333.263 301.732,332.263 302.5,331.5 Z M 323.5,332.5 C 321.77,336.85 319.937,341.183 318,345.5C 316.846,346.743 315.512,347.743 314,348.5C 314.897,344.474 316.231,340.474 318,336.5C 319.451,334.536 321.284,333.203 323.5,332.5 Z M 219.5,343.5 C 222.464,345.962 225.297,348.629 228,351.5C 228.345,353.201 227.678,354.534 226,355.5C 223.046,351.925 220.879,347.925 219.5,343.5 Z M 231.5,354.5 C 232.434,355.568 232.768,356.901 232.5,358.5C 233.822,358.33 234.989,358.663 236,359.5C 248.398,379.74 262.898,398.406 279.5,415.5C 278.185,417.316 276.685,418.983 275,420.5C 255.865,402.01 240.032,381.176 227.5,358C 229.324,357.34 230.657,356.173 231.5,354.5 Z M 299.5,354.5 C 301.564,355.058 303.23,356.225 304.5,358C 308.783,373.227 314.449,387.894 321.5,402C 320.034,402.635 318.7,403.469 317.5,404.5C 309.241,388.649 303.241,371.982 299.5,354.5 Z M 322.5,407.5 C 328.395,416.94 334.561,426.273 341,435.5C 341.422,441.121 339.755,441.788 336,437.5C 330.102,428.595 324.602,419.429 319.5,410C 320.571,409.148 321.571,408.315 322.5,407.5 Z M 282.5,419.5 C 293.079,428.466 304.079,436.966 315.5,445C 319.196,451.555 317.529,453.555 310.5,451C 299.112,443.449 288.778,434.615 279.5,424.5C 280.952,423.06 281.952,421.394 282.5,419.5 Z"/></g>
<g><path style="opacity:0.675" fill="#009229" d="M 673.5,124.5 C 689.837,124.333 706.17,124.5 722.5,125C 723.5,125.833 724.5,126.667 725.5,127.5C 726.626,133.782 726.793,140.115 726,146.5C 724.773,148.726 722.939,150.226 720.5,151C 721.712,164.127 722.879,177.294 724,190.5C 724.964,181.77 727.798,173.77 732.5,166.5C 740.611,162.433 748.944,161.933 757.5,165C 759.917,166.663 761.75,168.829 763,171.5C 763.333,166.167 763.667,160.833 764,155.5C 768,150.167 772,150.167 776,155.5C 776.966,161.13 777.633,166.796 778,172.5C 781.391,166.554 786.558,163.887 793.5,164.5C 801.118,163.599 806.951,166.266 811,172.5C 815.608,182.805 816.942,193.472 815,204.5C 812.333,207.167 809.667,207.167 807,204.5C 803.516,195.877 798.682,188.21 792.5,181.5C 781.181,188.683 775.848,198.85 776.5,212C 775.22,226.66 773.386,241.16 771,255.5C 776.033,249.578 782.2,245.578 789.5,243.5C 799.52,244.927 808.353,248.927 816,255.5C 820.116,271.272 818.783,286.606 812,301.5C 810.622,303.213 808.955,304.547 807,305.5C 804.929,304.636 803.262,303.303 802,301.5C 800.811,289.247 797.978,277.413 793.5,266C 788.565,266.086 783.898,267.419 779.5,270C 772.333,274.5 766.5,280.333 762,287.5C 758.661,302.016 753.828,316.016 747.5,329.5C 747.667,329.833 747.833,330.167 748,330.5C 755.055,323.923 763.221,321.423 772.5,323C 780.184,327.014 787.017,332.181 793,338.5C 794.923,341.544 795.756,344.877 795.5,348.5C 794.425,361.893 790.258,374.226 783,385.5C 780.933,388.07 778.433,390.07 775.5,391.5C 771.67,390.674 769.67,388.341 769.5,384.5C 770.812,371.493 770.812,358.493 769.5,345.5C 755.949,344.741 743.949,348.908 733.5,358C 712.228,394.276 684.895,425.276 651.5,451C 648.221,453.223 644.721,455.057 641,456.5C 634.918,454.336 633.251,450.336 636,444.5C 646.41,437.427 656.243,429.594 665.5,421C 664.844,415.412 664.511,409.745 664.5,404C 665.445,382.501 665.945,361.001 666,339.5C 664.414,341.67 663.08,344.004 662,346.5C 655.04,379.395 642.373,409.729 624,437.5C 621.951,440.55 619.284,442.883 616,444.5C 611.965,442.76 610.299,439.76 611,435.5C 628.172,411.534 640.672,385.201 648.5,356.5C 647.372,355.738 646.205,355.071 645,354.5C 643.401,356.036 641.567,356.536 639.5,356C 636.098,354.6 633.264,352.433 631,349.5C 628.806,345.251 626.806,340.918 625,336.5C 622.961,334.126 620.628,332.126 618,330.5C 616.62,325.709 618.453,323.376 623.5,323.5C 623.286,321.856 623.62,320.356 624.5,319C 620.338,316.692 619.672,313.692 622.5,310C 616.826,305.179 617.493,301.345 624.5,298.5C 623.501,293.664 625.501,291.497 630.5,292C 632,292.833 633.167,294 634,295.5C 638.163,292.82 640.997,293.986 642.5,299C 642.241,300.261 641.574,301.261 640.5,302C 645.935,302.42 647.602,305.087 645.5,310C 646.966,310.635 648.3,311.469 649.5,312.5C 651.828,310.2 653.995,310.2 656,312.5C 656.867,302.142 657.7,291.808 658.5,281.5C 656.523,273.726 652.19,267.559 645.5,263C 644.056,262.219 642.723,262.386 641.5,263.5C 637.787,270.14 634.953,277.14 633,284.5C 630.667,287.167 628.333,287.167 626,284.5C 623.071,274.101 623.404,263.768 627,253.5C 634.356,247.192 642.523,245.692 651.5,249C 653.049,250.214 654.215,251.714 655,253.5C 653.781,238.946 651.114,224.613 647,210.5C 644.112,207.229 640.612,205.396 636.5,205C 633.972,211.276 632.139,217.776 631,224.5C 626.702,225.921 624.035,224.254 623,219.5C 620.68,211.675 621.014,204.008 624,196.5C 628.863,192.823 634.363,190.823 640.5,190.5C 639.429,187.053 638.429,183.553 637.5,180C 639.446,174.519 642.779,173.352 647.5,176.5C 649.48,179.932 650.98,183.598 652,187.5C 655.791,180.013 661.958,176.18 670.5,176C 671.428,175.612 672.095,174.945 672.5,174C 672.801,166.095 673.801,158.429 675.5,151C 670.055,148.185 668.055,143.685 669.5,137.5C 668.661,132.336 669.994,128.003 673.5,124.5 Z M 675.5,129.5 C 690.5,129.5 705.5,129.5 720.5,129.5C 720.602,134.878 720.602,140.045 720.5,145C 705.504,145.5 690.504,145.667 675.5,145.5C 675.5,140.167 675.5,134.833 675.5,129.5 Z M 677.5,154.5 C 691.167,154.5 704.833,154.5 718.5,154.5C 719.083,178.41 720.083,202.244 721.5,226C 712.636,227.542 707.136,232.709 705,241.5C 702.125,238.537 698.625,236.704 694.5,236C 687.343,235.22 680.343,235.553 673.5,237C 674.317,225.89 675.151,214.724 676,203.5C 682.791,211.997 687.624,211.163 690.5,201C 689.289,190.745 684.789,182.245 677,175.5C 676.325,168.472 676.492,161.472 677.5,154.5 Z M 768.5,155.5 C 770.39,155.297 771.89,155.963 773,157.5C 773.667,165.833 773.667,174.167 773,182.5C 772,184.833 771,187.167 770,189.5C 766.339,178.134 765.839,166.801 768.5,155.5 Z M 739.5,166.5 C 744.93,166.161 750.264,166.661 755.5,168C 744.062,177.105 735.229,188.271 729,201.5C 726.447,190.326 728.114,179.66 734,169.5C 735.876,168.391 737.709,167.391 739.5,166.5 Z M 786.5,168.5 C 792.99,168.02 799.323,168.687 805.5,170.5C 811.991,180.779 813.824,191.779 811,203.5C 807,196.833 803,190.167 799,183.5C 795.167,178.333 790.667,173.833 785.5,170C 786.056,169.617 786.389,169.117 786.5,168.5 Z M 757.5,170.5 C 760.051,172.578 761.884,175.244 763,178.5C 763.667,183.5 763.667,188.5 763,193.5C 760.523,186.895 756.356,181.562 750.5,177.5C 752.548,174.785 754.882,172.452 757.5,170.5 Z M 781.5,172.5 C 785.131,173.608 788.131,175.774 790.5,179C 785,181.833 780.833,186 778,191.5C 776.51,184.558 777.676,178.224 781.5,172.5 Z M 642.5,177.5 C 644.411,177.574 645.578,178.574 646,180.5C 648.812,186.582 650.146,192.916 650,199.5C 644.408,193.094 641.908,185.761 642.5,177.5 Z M 667.5,179.5 C 669.527,179.338 671.527,179.505 673.5,180C 679.869,186.234 683.369,193.734 684,202.5C 676.572,194.212 667.739,188.046 657.5,184C 660.815,182.17 664.149,180.67 667.5,179.5 Z M 746.5,180.5 C 750.667,182.151 754.167,184.818 757,188.5C 760.088,194.104 762.588,199.938 764.5,206C 762.047,222.106 759.547,238.273 757,254.5C 754.7,247.067 751.2,240.234 746.5,234C 739.631,230.283 732.298,228.783 724.5,229.5C 724.21,218.823 724.043,208.156 724,197.5C 723.821,203.172 726.321,205.172 731.5,203.5C 735.764,195.293 740.764,187.626 746.5,180.5 Z M 655.5,187.5 C 658.316,187.544 660.649,188.544 662.5,190.5C 659.862,194.111 658.029,198.111 657,202.5C 654.528,197.676 654.028,192.676 655.5,187.5 Z M 665.5,191.5 C 668.286,193.113 670.953,194.946 673.5,197C 671.808,209.548 670.808,222.214 670.5,235C 670.667,237.5 670.833,240 671,242.5C 671.5,243 672,243.5 672.5,244C 670.044,246.408 668.211,249.241 667,252.5C 665.206,238.5 662.706,224.667 659.5,211C 659.434,203.797 661.434,197.297 665.5,191.5 Z M 766.5,191.5 C 768.899,194.949 769.066,198.615 767,202.5C 766.501,198.848 766.335,195.182 766.5,191.5 Z M 772.5,192.5 C 773.643,195.976 773.81,199.642 773,203.5C 772.689,201.444 772.189,199.444 771.5,197.5C 772.309,195.929 772.643,194.262 772.5,192.5 Z M 634.5,194.5 C 635.552,194.351 636.552,194.517 637.5,195C 632.751,203.246 629.584,212.079 628,221.5C 627.333,220.167 626.667,218.833 626,217.5C 625.333,211.5 625.333,205.5 626,199.5C 628.682,197.415 631.516,195.748 634.5,194.5 Z M 644.5,203.5 C 637.709,202.466 636.876,199.799 642,195.5C 643.731,197.862 644.565,200.529 644.5,203.5 Z M 766.5,208.5 C 768.823,209.058 771.157,209.725 773.5,210.5C 771.738,227.591 769.238,244.591 766,261.5C 764,264.167 762,266.833 760,269.5C 759.627,267.302 759.127,265.135 758.5,263C 762.631,245.047 765.298,226.88 766.5,208.5 Z M 656.5,218.5 C 658.178,221.325 659.178,224.491 659.5,228C 661.329,238.142 662.996,248.309 664.5,258.5C 663.507,265.875 662.007,266.542 660,260.5C 658.404,246.728 656.237,233.061 653.5,219.5C 654.791,219.737 655.791,219.404 656.5,218.5 Z M 709.5,275.5 C 709.337,273.143 709.503,270.81 710,268.5C 716.628,257.067 724.794,246.9 734.5,238C 728.792,236.105 723.125,236.272 717.5,238.5C 713.133,246.625 710.299,255.291 709,264.5C 706.36,252.759 709.193,242.593 717.5,234C 726.342,232.874 735.008,233.541 743.5,236C 729.426,246.9 718.093,260.067 709.5,275.5 Z M 744.5,239.5 C 745.496,239.414 746.329,239.748 747,240.5C 754.01,251.148 755.677,262.482 752,274.5C 748.381,264.239 742.548,255.572 734.5,248.5C 737.853,245.478 741.187,242.478 744.5,239.5 Z M 680.5,241.5 C 684.514,241.334 688.514,241.501 692.5,242C 695.458,242.229 697.958,243.396 700,245.5C 701.464,248.726 702.631,252.059 703.5,255.5C 703.444,256.737 702.944,257.737 702,258.5C 701.181,254.206 699.681,250.206 697.5,246.5C 693.295,244.477 688.961,244.144 684.5,245.5C 691.325,252.167 696.825,259.834 701,268.5C 701.667,270.167 701.667,271.833 701,273.5C 695.574,261.821 688.074,251.654 678.5,243C 679.416,242.722 680.082,242.222 680.5,241.5 Z M 674.5,245.5 C 678.348,246.432 681.014,248.766 682.5,252.5C 677.059,257.36 672.559,263.026 669,269.5C 668.744,266.443 668.244,263.443 667.5,260.5C 669.574,255.353 671.907,250.353 674.5,245.5 Z M 787.5,247.5 C 796.977,247.726 805.477,251.059 813,257.5C 816.231,270.668 815.565,283.668 811,296.5C 810.022,298.475 808.689,300.142 807,301.5C 806.055,301.095 805.388,300.428 805,299.5C 803.438,282.585 798.772,266.585 791,251.5C 790.051,249.907 788.885,248.574 787.5,247.5 Z M 766.5,276.5 C 767.149,271.384 768.316,266.384 770,261.5C 774.314,256.856 778.98,252.522 784,248.5C 787.394,252.119 789.894,256.286 791.5,261C 781.895,264.135 773.562,269.301 766.5,276.5 Z M 639.5,250.5 C 641.857,250.337 644.19,250.503 646.5,251C 638.624,260.248 632.957,270.748 629.5,282.5C 627.07,274.621 626.903,266.621 629,258.5C 629.346,256.152 630.513,254.319 632.5,253C 635.004,252.302 637.337,251.469 639.5,250.5 Z M 729.5,334.5 C 727.913,310.248 726.746,285.915 726,261.5C 725.25,260.874 724.416,260.374 723.5,260C 726.4,257.1 729.233,254.267 732,251.5C 742.373,259.397 748.54,269.897 750.5,283C 744.943,300.856 737.943,318.022 729.5,334.5 Z M 656.5,268.5 C 652.975,264.817 648.975,261.65 644.5,259C 645.958,256.54 647.791,254.373 650,252.5C 655.21,256.589 657.377,261.922 656.5,268.5 Z M 683.5,259.5 C 685.017,259.511 686.184,260.177 687,261.5C 691.113,267.391 694.446,273.724 697,280.5C 700.827,285.558 705.66,286.725 711.5,284C 715.371,279.093 718.871,273.926 722,268.5C 723.938,291.459 724.938,314.459 725,337.5C 710.563,366.368 691.729,392.034 668.5,414.5C 668.187,388.837 669.021,363.17 671,337.5C 674.806,332.689 679.473,329.022 685,326.5C 689.081,335.823 692.081,345.489 694,355.5C 696.981,359.696 700.814,360.529 705.5,358C 706.701,357.097 707.535,355.931 708,354.5C 713.821,340.126 713.821,325.793 708,311.5C 699.055,303.959 688.889,301.125 677.5,303C 675.376,304.122 673.543,305.622 672,307.5C 671.709,297.158 672.042,286.825 673,276.5C 675.109,269.909 678.609,264.242 683.5,259.5 Z M 756.5,271.5 C 757.621,273.089 757.454,274.756 756,276.5C 755.616,274.803 755.782,273.137 756.5,271.5 Z M 762.5,271.5 C 763.097,271.735 763.43,272.235 763.5,273C 762.922,274.811 762.422,276.645 762,278.5C 760.196,276.076 760.362,273.743 762.5,271.5 Z M 757.5,279.5 C 758.773,280.077 758.773,280.743 757.5,281.5C 756.537,281.03 756.537,280.363 757.5,279.5 Z M 661.5,281.5 C 662.822,281.33 663.989,281.663 665,282.5C 665.533,293.852 665.199,305.185 664,316.5C 663.812,320.877 662.479,324.877 660,328.5C 659.077,326.966 658.577,325.299 658.5,323.5C 659.909,309.515 660.909,295.515 661.5,281.5 Z M 728.5,345.5 C 737.792,327.129 745.625,308.129 752,288.5C 753.211,284.538 755.211,283.871 758,286.5C 754.478,303.567 748.644,319.901 740.5,335.5C 736.773,339.233 732.773,342.566 728.5,345.5 Z M 632.5,301.5 C 630.72,303.136 629.053,303.303 627.5,302C 628.872,301.598 630.205,301.098 631.5,300.5C 632.107,300.624 632.44,300.957 632.5,301.5 Z M 633.5,312.5 C 635.144,311.684 636.31,310.35 637,308.5C 637.833,310.667 639.333,312.167 641.5,313C 640.5,316.333 639.5,316.333 638.5,313C 636.866,312.506 635.199,312.34 633.5,312.5 Z M 682.5,309.5 C 689.171,308.535 695.505,310.035 701.5,314C 702.701,314.903 703.535,316.069 704,317.5C 706.163,328.576 705.83,339.576 703,350.5C 702.632,351.91 701.799,352.91 700.5,353.5C 697.404,337.522 691.404,322.855 682.5,309.5 Z M 676.5,310.5 C 677.822,310.33 678.989,310.663 680,311.5C 681.709,314.418 683.542,317.252 685.5,320C 677.1,323.114 670.267,328.281 665,335.5C 665.19,331.175 665.857,326.842 667,322.5C 669.934,318.288 673.101,314.288 676.5,310.5 Z M 630.5,312.5 C 631.5,312.5 632.5,312.5 633.5,312.5C 632.833,313.833 631.833,314.833 630.5,315.5C 630.5,314.5 630.5,313.5 630.5,312.5 Z M 667.5,312.5 C 669.76,313.238 669.927,314.238 668,315.5C 667.517,314.552 667.351,313.552 667.5,312.5 Z M 653.5,331.5 C 652.257,326.75 650.924,321.917 649.5,317C 650.638,314.955 652.305,314.288 654.5,315C 652.178,320.335 651.845,325.835 653.5,331.5 Z M 643.5,320.5 C 644.552,320.351 645.552,320.517 646.5,321C 641.914,326.876 640.914,326.709 643.5,320.5 Z M 638.5,321.5 C 637.797,326.009 635.797,326.342 632.5,322.5C 634.337,322.696 636.337,322.362 638.5,321.5 Z M 647.5,323.5 C 648.171,326.758 649.004,330.091 650,333.5C 651.362,347.665 650.028,347.999 646,334.5C 644.859,332.391 643.359,330.558 641.5,329C 644.468,328.238 646.468,326.405 647.5,323.5 Z M 737.5,350.5 C 739.809,345.847 742.142,341.181 744.5,336.5C 750.375,332.062 756.708,328.395 763.5,325.5C 765.962,330.554 767.629,335.887 768.5,341.5C 763.434,341.34 758.434,341.84 753.5,343C 747.994,345.255 742.66,347.755 737.5,350.5 Z M 767.5,326.5 C 767.735,325.903 768.235,325.57 769,325.5C 777.521,329.104 784.854,334.437 791,341.5C 792.255,356.15 788.922,369.817 781,382.5C 779.281,384.557 777.281,386.224 775,387.5C 773.831,386.991 772.998,386.158 772.5,385C 775.762,365.617 774.595,346.451 769,327.5C 768.617,326.944 768.117,326.611 767.5,326.5 Z M 627.5,333.5 C 625.197,331.675 622.864,329.842 620.5,328C 622.833,326 625.167,326 627.5,328C 626.692,328.308 626.025,328.808 625.5,329.5C 626.63,330.622 627.297,331.956 627.5,333.5 Z M 646.5,347.5 C 644.493,342.35 641.993,337.35 639,332.5C 636.269,329.288 632.769,327.788 628.5,328C 632.962,326.482 636.795,327.649 640,331.5C 643.438,336.314 645.605,341.647 646.5,347.5 Z M 653.5,331.5 C 657.389,339.966 655.556,346.966 648,352.5C 646.731,351.095 646.231,349.429 646.5,347.5C 649.396,350.264 651.562,349.597 653,345.5C 654.749,340.898 654.916,336.232 653.5,331.5 Z M 631.5,333.5 C 633.757,332.197 635.59,332.864 637,335.5C 639.477,339.61 641.144,343.944 642,348.5C 640.488,347.743 639.154,346.743 638,345.5C 636.096,341.222 633.929,337.222 631.5,333.5 Z M 627.5,333.5 C 628.906,333.973 629.573,334.973 629.5,336.5C 628.094,336.027 627.427,335.027 627.5,333.5 Z M 629.5,336.5 C 631.293,338.426 632.293,340.759 632.5,343.5C 630.707,341.574 629.707,339.241 629.5,336.5 Z M 632.5,343.5 C 634.973,346.804 637.973,349.638 641.5,352C 636.147,351.817 633.147,348.984 632.5,343.5 Z M 736.5,343.5 C 734.612,347.606 732.446,351.606 730,355.5C 729.097,354.299 727.931,353.465 726.5,353C 729.703,349.629 733.036,346.462 736.5,343.5 Z M 728.5,345.5 C 728.573,347.027 727.906,348.027 726.5,348.5C 726.427,346.973 727.094,345.973 728.5,345.5 Z M 656.5,352.5 C 653.496,370.586 647.496,387.92 638.5,404.5C 636.998,403.917 635.665,403.084 634.5,402C 641.551,387.894 647.217,373.227 651.5,358C 653.351,356.317 655.017,354.484 656.5,352.5 Z M 723.5,354.5 C 725.01,355.836 726.677,357.003 728.5,358C 715.98,381.137 700.146,401.971 681,420.5C 679.457,418.622 677.624,417.122 675.5,416C 694.089,397.216 710.089,376.716 723.5,354.5 Z M 631.5,407.5 C 633.255,408.072 634.922,408.906 636.5,410C 630.939,420.973 624.272,431.14 616.5,440.5C 614.616,439.307 614.116,437.641 615,435.5C 621.783,426.935 627.283,417.601 631.5,407.5 Z M 671.5,419.5 C 672.932,421.327 674.599,422.994 676.5,424.5C 666.648,435.086 655.648,444.253 643.5,452C 638.917,452.934 637.417,451.1 639,446.5C 650.607,438.389 661.44,429.389 671.5,419.5 Z"/></g>
<g><path style="opacity:0.829" fill="#009229" d="M 350.5,126.5 C 437.167,126.5 523.833,126.5 610.5,126.5C 610.667,213.167 610.5,299.834 610,386.5C 607.348,415.819 591.515,432.986 562.5,438C 547.223,439.923 531.89,441.256 516.5,442C 507.426,443.041 499.093,446.041 491.5,451C 488.727,453.383 486.561,456.217 485,459.5C 481.923,463.753 478.089,464.919 473.5,463C 465.23,449.857 453.23,442.857 437.5,442C 425.141,441.306 412.808,440.306 400.5,439C 365.214,433.712 346.714,413.212 345,377.5C 344.333,295.5 344.333,213.5 345,131.5C 346.107,128.887 347.94,127.22 350.5,126.5 Z M 477.5,134.5 C 473.554,138.174 471.387,142.841 471,148.5C 467.227,143.246 462.561,141.912 457,144.5C 455,148.833 455,153.167 457,157.5C 461.894,161.941 463.561,160.941 462,154.5C 462.667,153.167 463.667,152.167 465,151.5C 474.458,157.719 474.958,164.719 466.5,172.5C 469.727,172.967 472.227,171.634 474,168.5C 476.447,176.435 478.781,176.435 481,168.5C 482.739,170.741 484.906,172.408 487.5,173.5C 487.833,173.167 488.167,172.833 488.5,172.5C 481.349,164.759 481.849,157.759 490,151.5C 491,152.167 492,152.833 493,153.5C 492.665,161.065 494.665,162.065 499,156.5C 501,152.833 501,149.167 499,145.5C 493.265,141.48 488.265,142.48 484,148.5C 483.818,143.109 481.984,138.442 478.5,134.5C 519.167,134.5 559.833,134.5 600.5,134.5C 600.5,152.167 600.5,169.833 600.5,187.5C 567.498,187.667 534.498,187.5 501.5,187C 503.891,178.393 500.891,175.727 492.5,179C 489.931,181.479 487.598,184.146 485.5,187C 480.167,187.667 474.833,187.667 469.5,187C 467.69,184.356 465.69,181.856 463.5,179.5C 454.685,175.164 451.352,177.664 453.5,187C 420.835,187.5 388.168,187.667 355.5,187.5C 355.5,169.833 355.5,152.167 355.5,134.5C 396.167,134.5 436.833,134.5 477.5,134.5 Z M 473.5,207.5 C 469.84,213.463 465.674,219.13 461,224.5C 458.667,222.833 456.333,221.167 454,219.5C 452.322,220.466 451.655,221.799 452,223.5C 455.023,225.698 457.856,228.031 460.5,230.5C 464.202,232.024 467.536,234.19 470.5,237C 473.914,237.757 474.914,236.59 473.5,233.5C 471.321,232.243 469.321,230.743 467.5,229C 477.72,215.78 487.553,202.28 497,188.5C 531.278,190.489 565.778,191.156 600.5,190.5C 600.667,245.168 600.5,299.834 600,354.5C 596.71,361.121 591.543,365.621 584.5,368C 546.779,378.553 513.112,371.22 483.5,346C 479.5,344 475.5,344 471.5,346C 441.916,371.319 408.25,378.653 370.5,368C 362.198,365.367 357.031,359.867 355,351.5C 354.573,297.832 354.74,244.165 355.5,190.5C 389.889,191.156 424.056,190.489 458,188.5C 462.328,195.647 467.494,201.98 473.5,207.5 Z M 476.5,203.5 C 474.745,198.842 472.079,194.675 468.5,191C 474.528,190.17 480.528,190.336 486.5,191.5C 483.491,195.836 480.157,199.836 476.5,203.5 Z M 476.5,203.5 C 476.262,205.404 475.262,206.738 473.5,207.5C 473.738,205.596 474.738,204.262 476.5,203.5 Z M 452.5,265.5 C 469.17,265.333 485.837,265.5 502.5,266C 503.766,266.309 504.933,266.809 506,267.5C 506.826,287.74 506.659,307.906 505.5,328C 496.263,329.141 486.929,329.641 477.5,329.5C 468.833,329.333 460.167,329.167 451.5,329C 450.584,328.626 449.75,328.126 449,327.5C 448.333,307.833 448.333,288.167 449,268.5C 450.145,267.364 451.312,266.364 452.5,265.5 Z M 426.5,285.5 C 427.721,284.535 429.054,284.702 430.5,286C 434.056,288.978 436.056,292.478 436.5,296.5C 431.696,294.036 428.363,290.369 426.5,285.5 Z M 571.5,284.5 C 576.988,286.49 580.655,290.323 582.5,296C 576.764,294.426 573.097,290.593 571.5,284.5 Z M 475.5,303.5 C 478.99,303.151 481.323,304.651 482.5,308C 479.834,313.206 476.667,313.706 473,309.5C 472.458,306.918 473.292,304.918 475.5,303.5 Z M 474.5,350.5 C 477.32,350.248 479.986,350.748 482.5,352C 514.436,378.053 550.103,384.719 589.5,372C 593.278,369.888 596.778,367.388 600,364.5C 601.68,379.257 600.013,393.59 595,407.5C 591.114,414.386 585.614,419.553 578.5,423C 570.736,425.941 562.736,427.941 554.5,429C 539.116,429.802 523.783,431.136 508.5,433C 496.03,435.23 485.697,441.063 477.5,450.5C 467.074,439.283 454.074,433.117 438.5,432C 425.844,430.883 413.178,429.883 400.5,429C 385.659,427.953 373.159,422.12 363,411.5C 358.966,404.365 356.632,396.699 356,388.5C 355.605,380.09 355.272,371.757 355,363.5C 361.703,370.435 369.87,374.602 379.5,376C 415.467,382.719 447.134,374.219 474.5,350.5 Z"/></g>
<g><path style="opacity:0.829" fill="#009229" d="M 477.5,134.5 C 477.833,134.5 478.167,134.5 478.5,134.5C 481.984,138.442 483.818,143.109 484,148.5C 488.265,142.48 493.265,141.48 499,145.5C 501,149.167 501,152.833 499,156.5C 494.665,162.065 492.665,161.065 493,153.5C 492,152.833 491,152.167 490,151.5C 481.849,157.759 481.349,164.759 488.5,172.5C 488.167,172.833 487.833,173.167 487.5,173.5C 484.906,172.408 482.739,170.741 481,168.5C 478.781,176.435 476.447,176.435 474,168.5C 472.227,171.634 469.727,172.967 466.5,172.5C 474.958,164.719 474.458,157.719 465,151.5C 463.667,152.167 462.667,153.167 462,154.5C 463.561,160.941 461.894,161.941 457,157.5C 455,153.167 455,148.833 457,144.5C 462.561,141.912 467.227,143.246 471,148.5C 471.387,142.841 473.554,138.174 477.5,134.5 Z"/></g>
<g><path style="opacity:0.667" fill="#009229" d="M 209.5,170.5 C 213.603,169.769 217.103,170.769 220,173.5C 221.799,177.732 223.299,182.065 224.5,186.5C 224.167,186.833 223.833,187.167 223.5,187.5C 219.056,181.588 214.389,175.921 209.5,170.5 Z"/></g>
<g><path style="opacity:0.666" fill="#009229" d="M 738.5,170.5 C 740.924,170.192 743.257,170.526 745.5,171.5C 740.779,175.953 736.779,180.953 733.5,186.5C 732.635,187.583 731.635,187.749 730.5,187C 732.509,181.115 735.176,175.615 738.5,170.5 Z"/></g>
<g><path style="opacity:0.658" fill="#009229" d="M 160.5,171.5 C 161.525,171.897 161.692,172.563 161,173.5C 156.008,178.842 151.508,184.508 147.5,190.5C 147.598,185.005 149.098,179.672 152,174.5C 154.804,173.132 157.638,172.132 160.5,171.5 Z"/></g>
<g><path style="opacity:0.654" fill="#009229" d="M 794.5,171.5 C 797.812,172.025 800.979,173.025 804,174.5C 805.984,179.432 807.818,184.432 809.5,189.5C 809.167,189.833 808.833,190.167 808.5,190.5C 803.816,184.154 799.149,177.82 794.5,171.5 Z"/></g>
<g><path style="opacity:0.623" fill="#009229" d="M 284.5,181.5 C 286.379,182.341 288.379,182.675 290.5,182.5C 290.5,183.5 290.5,184.5 290.5,185.5C 285.701,187.277 281.367,189.944 277.5,193.5C 276.592,192.21 276.759,190.877 278,189.5C 280.001,186.669 282.167,184.003 284.5,181.5 Z"/></g>
<g><path style="opacity:0.625" fill="#009229" d="M 670.5,181.5 C 674.027,184.204 676.86,187.538 679,191.5C 679.688,192.332 679.521,192.998 678.5,193.5C 674.633,189.944 670.299,187.277 665.5,185.5C 665.5,184.5 665.5,183.5 665.5,182.5C 667.415,182.784 669.081,182.451 670.5,181.5 Z"/></g>
<g><path style="opacity:0.535" fill="#009229" d="M 322.5,197.5 C 327.811,198.85 330.145,202.35 329.5,208C 329.167,209.5 328.833,211 328.5,212.5C 326.133,207.751 324.133,202.751 322.5,197.5 Z"/></g>
<g><path style="opacity:0.551" fill="#009229" d="M 631.5,197.5 C 632.376,197.369 633.043,197.702 633.5,198.5C 631.686,203.283 629.686,207.95 627.5,212.5C 625.378,206.385 626.712,201.385 631.5,197.5 Z"/></g>
<g><path style="opacity:0.772" fill="#009229" d="M 482.5,210.5 C 486.554,214.912 490.387,219.579 494,224.5C 496.333,222.833 498.667,221.167 501,219.5C 502.022,220.354 502.855,221.354 503.5,222.5C 497.131,228.104 490.298,233.104 483,237.5C 481.5,237.333 480.667,236.5 480.5,235C 482.615,232.771 484.948,230.771 487.5,229C 484.623,224.745 481.623,220.578 478.5,216.5C 480.252,214.754 481.585,212.754 482.5,210.5 Z"/></g>
<g><path style="opacity:0.79" fill="#009229" d="M 460.5,230.5 C 461.476,231.815 462.476,233.148 463.5,234.5C 459.662,238.852 455.829,243.185 452,247.5C 449.786,247.154 448.286,245.988 447.5,244C 449.597,240.232 452.097,236.732 455,233.5C 455.49,232.207 455.657,230.873 455.5,229.5C 457.216,229.629 458.883,229.962 460.5,230.5 Z"/></g>
<g><path style="opacity:0.789" fill="#009229" d="M 496.5,229.5 C 497.5,229.5 498.5,229.5 499.5,229.5C 499.491,231.308 499.991,232.975 501,234.5C 503.572,237.403 505.739,240.569 507.5,244C 506.714,245.988 505.214,247.154 503,247.5C 499.171,243.185 495.338,238.852 491.5,234.5C 493.006,232.599 494.673,230.932 496.5,229.5 Z"/></g>
<g><path style="opacity:0.808" fill="#009229" d="M 157.5,252.5 C 158.675,252.281 159.675,252.614 160.5,253.5C 158.527,256.246 157.027,259.246 156,262.5C 152.857,272.093 150.024,281.76 147.5,291.5C 146.104,289.028 145.27,286.362 145,283.5C 144.333,276.167 144.333,268.833 145,261.5C 145.374,260.584 145.874,259.75 146.5,259C 150.23,256.807 153.897,254.64 157.5,252.5 Z"/></g>
<g><path style="opacity:0.726" fill="#009229" d="M 313.5,252.5 C 317.607,252.646 321.273,253.98 324.5,256.5C 326.116,261.863 327.116,267.363 327.5,273C 327.546,274.728 327.046,276.228 326,277.5C 322.861,268.556 318.694,260.222 313.5,252.5 Z"/></g>
<g><path style="opacity:0.718" fill="#009229" d="M 638.5,252.5 C 639.978,252.238 641.311,252.571 642.5,253.5C 637.028,260.776 632.861,268.776 630,277.5C 627.922,269.771 628.756,262.271 632.5,255C 634.611,254.155 636.611,253.322 638.5,252.5 Z"/></g>
<g><path style="opacity:0.797" fill="#009229" d="M 795.5,252.5 C 801.705,253.848 806.872,256.848 811,261.5C 811.667,268.5 811.667,275.5 811,282.5C 810.607,285.633 809.774,288.633 808.5,291.5C 806.096,283.387 803.762,275.221 801.5,267C 799.778,261.987 797.778,257.154 795.5,252.5 Z"/></g>
<g><path style="opacity:0.623" fill="#009229" d="M 450.5,262.5 C 468.503,262.333 486.503,262.5 504.5,263C 506.286,263.785 507.786,264.951 509,266.5C 510.63,286.435 510.964,306.435 510,326.5C 509.293,328.081 508.46,329.581 507.5,331C 488.257,332.641 468.923,332.975 449.5,332C 446.892,330.622 445.392,328.455 445,325.5C 444.333,307.167 444.333,288.833 445,270.5C 445.49,266.854 447.323,264.187 450.5,262.5 Z M 452.5,265.5 C 451.312,266.364 450.145,267.364 449,268.5C 448.333,288.167 448.333,307.833 449,327.5C 449.75,328.126 450.584,328.626 451.5,329C 460.167,329.167 468.833,329.333 477.5,329.5C 486.929,329.641 496.263,329.141 505.5,328C 506.659,307.906 506.826,287.74 506,267.5C 504.933,266.809 503.766,266.309 502.5,266C 485.837,265.5 469.17,265.333 452.5,265.5 Z M 475.5,303.5 C 473.292,304.918 472.458,306.918 473,309.5C 476.667,313.706 479.834,313.206 482.5,308C 481.323,304.651 478.99,303.151 475.5,303.5 Z"/></g>
<g><path style="opacity:0.682" fill="#009229" d="M 396.5,272.5 C 398.199,272.34 399.866,272.506 401.5,273C 406.349,277.681 411.015,282.515 415.5,287.5C 414.855,288.646 414.022,289.646 413,290.5C 408.319,285.651 403.485,280.985 398.5,276.5C 394.426,284.982 390.093,293.315 385.5,301.5C 383.276,300.919 382.443,299.586 383,297.5C 386.989,288.852 391.489,280.519 396.5,272.5 Z"/></g>
<g><path style="opacity:0.708" fill="#009229" d="M 541.5,272.5 C 543.199,272.34 544.866,272.506 546.5,273C 551.349,277.681 556.015,282.515 560.5,287.5C 559.855,288.646 559.022,289.646 558,290.5C 553.319,285.651 548.485,280.985 543.5,276.5C 538.892,284.716 534.559,293.05 530.5,301.5C 528.276,300.919 527.443,299.586 528,297.5C 532.02,288.786 536.52,280.453 541.5,272.5 Z"/></g>
<g><path style="opacity:0.799" fill="#009229" d="M 469.5,275.5 C 473.5,275.5 477.5,275.5 481.5,275.5C 481.169,282.863 481.503,290.197 482.5,297.5C 491.264,303.946 491.597,310.779 483.5,318C 476.668,320.986 471.168,319.486 467,313.5C 464.354,306.603 466.188,301.27 472.5,297.5C 473.489,293.893 473.823,290.226 473.5,286.5C 472.167,286.5 470.833,286.5 469.5,286.5C 469.5,284.833 469.5,283.167 469.5,281.5C 474.833,281.167 474.833,280.833 469.5,280.5C 469.5,278.833 469.5,277.167 469.5,275.5 Z M 475.5,303.5 C 473.292,304.918 472.458,306.918 473,309.5C 476.667,313.706 479.834,313.206 482.5,308C 481.323,304.651 478.99,303.151 475.5,303.5 Z"/></g>
<g><path style="opacity:0.895" fill="#009229" d="M 424.5,280.5 C 433.294,282.288 438.96,287.621 441.5,296.5C 428.803,313.843 411.803,320.676 390.5,317C 382.072,314.036 374.905,309.203 369,302.5C 368.146,300.393 368.812,299.059 371,298.5C 394.036,308.441 411.87,302.441 424.5,280.5 Z M 426.5,285.5 C 428.363,290.369 431.696,294.036 436.5,296.5C 436.056,292.478 434.056,288.978 430.5,286C 429.054,284.702 427.721,284.535 426.5,285.5 Z"/></g>
<g><path style="opacity:0.895" fill="#009229" d="M 569.5,280.5 C 578.29,282.283 583.956,287.617 586.5,296.5C 572.84,314.998 554.84,321.498 532.5,316C 525.492,312.66 519.326,308.16 514,302.5C 513.51,301.207 513.343,299.873 513.5,298.5C 537.367,308.864 556.034,302.864 569.5,280.5 Z M 571.5,284.5 C 573.097,290.593 576.764,294.426 582.5,296C 580.655,290.323 576.988,286.49 571.5,284.5 Z"/></g>
<g><path style="opacity:0.8" fill="#009229" d="M 265.5,311.5 C 266.675,311.281 267.675,311.614 268.5,312.5C 262.466,323.267 257.8,334.6 254.5,346.5C 252.005,337.235 251.838,327.902 254,318.5C 257.478,315.514 261.311,313.181 265.5,311.5 Z"/></g>
<g><path style="opacity:0.784" fill="#009229" d="M 687.5,311.5 C 693.116,312.392 697.949,314.726 702,318.5C 704.118,327.884 703.952,337.217 701.5,346.5C 697.663,334.494 692.996,322.827 687.5,311.5 Z"/></g>
<g><path style="opacity:0.812" fill="#009229" d="M 179.5,332.5 C 180.675,332.281 181.675,332.614 182.5,333.5C 180.586,338.64 179.42,343.973 179,349.5C 178.238,359.654 177.738,369.654 177.5,379.5C 170.065,368.403 166.898,356.403 168,343.5C 171.729,339.602 175.562,335.935 179.5,332.5 Z"/></g>
<g><path style="opacity:0.816" fill="#009229" d="M 773.5,332.5 C 779.212,334.798 784.045,338.465 788,343.5C 788.77,357.186 785.104,369.52 777,380.5C 778.407,364.344 777.24,348.344 773.5,332.5 Z"/></g>
<g><path style="opacity:0.853" fill="#009229" d="M 476.5,372.5 C 477.586,372.62 478.253,373.287 478.5,374.5C 479.27,378.181 480.103,381.848 481,385.5C 486.883,378.375 488.883,379.375 487,388.5C 493.028,383.708 494.528,384.708 491.5,391.5C 499.896,391.855 500.563,394.022 493.5,398C 497.568,399.894 501.902,400.727 506.5,400.5C 506.5,401.5 506.5,402.5 506.5,403.5C 501.938,403.481 497.604,404.314 493.5,406C 495.017,407.685 496.684,409.185 498.5,410.5C 496.257,411.474 493.924,411.808 491.5,411.5C 495.077,418.757 493.577,420.091 487,415.5C 488.883,424.625 486.883,425.625 481,418.5C 480.148,422.933 478.981,427.267 477.5,431.5C 476.271,427.188 475.104,422.855 474,418.5C 472.315,420.017 470.815,421.684 469.5,423.5C 468.682,420.893 468.182,418.226 468,415.5C 461.212,420.046 460.046,418.879 464.5,412C 456.935,412.335 455.935,410.335 461.5,406C 457.717,404.423 453.717,403.589 449.5,403.5C 449.5,402.5 449.5,401.5 449.5,400.5C 453.794,400.818 457.794,399.985 461.5,398C 459.792,396.49 458.126,394.99 456.5,393.5C 459.107,392.682 461.774,392.182 464.5,392C 460,385.167 461.167,384 468,388.5C 468.333,385.833 468.667,383.167 469,380.5C 470.667,382.167 472.333,383.833 474,385.5C 475.412,381.272 476.246,376.939 476.5,372.5 Z"/></g>
<g><path style="opacity:0.857" fill="#009229" d="M 396.5,385.5 C 398.662,385.897 399.995,387.231 400.5,389.5C 401.833,388.5 403.167,387.5 404.5,386.5C 405.167,388.167 405.833,389.833 406.5,391.5C 407.891,390.355 409.224,390.355 410.5,391.5C 409.754,392.736 409.421,394.07 409.5,395.5C 415.146,395.151 415.813,396.651 411.5,400C 413.061,400.941 414.395,402.108 415.5,403.5C 414.092,404.243 412.759,405.077 411.5,406C 415.813,409.349 415.146,410.849 409.5,410.5C 411.792,416.005 410.625,417.339 406,414.5C 405.667,416.5 405.333,418.5 405,420.5C 403.414,419.624 401.914,418.624 400.5,417.5C 398.083,421.63 396.25,421.297 395,416.5C 393.622,418.213 391.955,419.547 390,420.5C 391.509,414.792 389.842,413.459 385,416.5C 384.464,414.433 384.964,412.599 386.5,411C 380.891,410.884 380.224,409.218 384.5,406C 382.779,405.261 381.113,404.427 379.5,403.5C 380.981,402.52 382.315,401.353 383.5,400C 381.963,398.89 381.297,397.39 381.5,395.5C 383.199,395.66 384.866,395.494 386.5,395C 383.229,389.579 384.229,388.412 389.5,391.5C 389.835,390.336 389.835,389.003 389.5,387.5C 391.843,386.275 393.677,386.941 395,389.5C 395.791,388.255 396.291,386.922 396.5,385.5 Z"/></g>
<g><path style="opacity:0.867" fill="#009229" d="M 556.5,385.5 C 558.093,386.348 559.26,387.681 560,389.5C 563.114,385.319 564.948,385.985 565.5,391.5C 570.865,388.368 571.865,389.535 568.5,395C 574.109,395.116 574.776,396.782 570.5,400C 572.001,401.252 573.668,402.252 575.5,403C 573.999,404.252 572.332,405.252 570.5,406C 574.776,409.218 574.109,410.884 568.5,411C 571.865,416.465 570.865,417.632 565.5,414.5C 564.948,420.015 563.114,420.681 560,416.5C 558.199,421.623 556.199,421.623 554,416.5C 550.782,420.776 549.116,420.109 549,414.5C 543.77,417.767 542.604,416.767 545.5,411.5C 539.985,410.948 539.319,409.114 543.5,406C 538.377,404.199 538.377,402.199 543.5,400C 539.319,396.886 539.985,395.052 545.5,394.5C 542.314,389.199 543.314,388.199 548.5,391.5C 549.052,385.985 550.886,385.319 554,389.5C 555.095,388.307 555.928,386.973 556.5,385.5 Z"/></g>
<g><path style="opacity:0.788" fill="#009229" d="M 230.5,387.5 C 232.371,387.859 233.871,388.859 235,390.5C 257.915,420.754 285.249,446.088 317,466.5C 311.246,482.191 304.746,497.691 297.5,513C 300.046,516.59 302.213,520.423 304,524.5C 304.72,526.112 304.554,527.612 303.5,529C 295.057,526.112 287.057,522.112 279.5,517C 241.71,493.553 209.21,464.053 182,428.5C 180.967,425.783 181.8,423.949 184.5,423C 194.592,421.149 204.592,418.982 214.5,416.5C 219.592,406.645 224.925,396.979 230.5,387.5 Z M 231.5,395.5 C 253.863,424.366 280.196,448.866 310.5,469C 304.264,483.874 297.931,498.708 291.5,513.5C 292.747,515.497 293.581,517.497 294,519.5C 253.314,495.488 218.147,464.988 188.5,428C 198.188,426.108 207.854,424.108 217.5,422C 222.574,413.35 227.241,404.517 231.5,395.5 Z M 252.5,448.5 C 253.559,450.07 253.059,451.403 251,452.5C 250.7,450.934 251.2,449.601 252.5,448.5 Z M 245.5,456.5 C 246.239,456.369 246.906,456.536 247.5,457C 246.333,458.167 245.167,459.333 244,460.5C 243.7,458.934 244.2,457.601 245.5,456.5 Z M 279.5,472.5 C 280.239,472.369 280.906,472.536 281.5,473C 279.556,476.61 277.223,479.943 274.5,483C 273.833,483.667 273.167,483.667 272.5,483C 274.72,479.385 277.053,475.885 279.5,472.5 Z"/></g>
<g><path style="opacity:0.782" fill="#009229" d="M 654.5,516.5 C 655.88,516.038 656.547,515.038 656.5,513.5C 655.921,510.069 654.587,507.069 652.5,504.5C 651.458,499.358 649.458,494.691 646.5,490.5C 646.598,488.447 645.931,486.78 644.5,485.5C 644.672,484.508 644.338,483.842 643.5,483.5C 643.598,481.447 642.931,479.78 641.5,478.5C 641.293,475.759 640.293,473.426 638.5,471.5C 637.667,469.248 637.667,467.081 638.5,465C 661.635,450.819 682.468,433.652 701,413.5C 708.363,404.808 715.696,396.142 723,387.5C 729.448,396.885 735.282,406.718 740.5,417C 751.515,418.963 762.349,421.463 773,424.5C 773.418,426.788 772.751,428.788 771,430.5C 738.568,472.111 699.068,505.111 652.5,529.5C 651.167,528.833 650.167,527.833 649.5,526.5C 651.225,523.133 652.892,519.8 654.5,516.5 Z M 660.5,518.5 C 662.218,516.074 662.718,513.407 662,510.5C 656.218,496.483 650.051,482.649 643.5,469C 673.537,448.962 699.87,424.796 722.5,396.5C 727.374,405.082 732.374,413.582 737.5,422C 746.927,423.852 756.261,426.018 765.5,428.5C 736.525,465.829 701.525,495.829 660.5,518.5 Z M 702.5,450.5 C 703.922,450.75 704.922,451.583 705.5,453C 703.511,453.519 702.511,452.686 702.5,450.5 Z M 708.5,457.5 C 710.134,458.207 711.468,459.373 712.5,461C 710.159,461.168 708.826,460.001 708.5,457.5 Z M 687.5,461.5 C 687.897,460.475 688.563,460.308 689.5,461C 691.547,463.054 691.547,464.054 689.5,464C 688.934,463.005 688.267,462.172 687.5,461.5 Z M 693.5,469.5 C 695.268,468.493 696.601,469.159 697.5,471.5C 697.167,471.833 696.833,472.167 696.5,472.5C 695.265,471.66 694.265,470.66 693.5,469.5 Z"/></g>
<g><path style="opacity:0.788" fill="#009229" d="M 241.5,432.5 C 244.34,433.423 246.674,435.09 248.5,437.5C 243.131,443.87 237.131,449.537 230.5,454.5C 229.5,452.833 228.167,451.5 226.5,450.5C 233.313,445.413 238.313,439.413 241.5,432.5 Z"/></g>
<g><path style="opacity:0.75" fill="#009229" d="M 713.5,432.5 C 715.991,432.829 718.157,433.829 720,435.5C 721.862,439.419 723.529,443.419 725,447.5C 726.019,446.313 727.186,445.313 728.5,444.5C 729.5,446.167 730.833,447.5 732.5,448.5C 730.124,451.711 727.291,454.377 724,456.5C 722.739,456.241 721.739,455.574 721,454.5C 719.184,449.375 717.184,444.375 715,439.5C 711.185,444.718 708.852,444.051 708,437.5C 709.73,435.598 711.563,433.931 713.5,432.5 Z"/></g>
<g><path style="opacity:0.783" fill="#009229" d="M 249.5,443.5 C 256.497,442.666 259.664,445.666 259,452.5C 257.16,454.84 254.993,456.84 252.5,458.5C 250.962,464.269 247.295,466.436 241.5,465C 236.243,460.844 236.243,456.511 241.5,452C 242.766,451.691 243.933,451.191 245,450.5C 246.012,447.798 247.512,445.465 249.5,443.5 Z M 252.5,448.5 C 251.2,449.601 250.7,450.934 251,452.5C 253.059,451.403 253.559,450.07 252.5,448.5 Z M 245.5,456.5 C 244.2,457.601 243.7,458.934 244,460.5C 245.167,459.333 246.333,458.167 247.5,457C 246.906,456.536 246.239,456.369 245.5,456.5 Z"/></g>
<g><path style="opacity:0.794" fill="#009229" d="M 702.5,443.5 C 706.888,444.388 709.388,447.054 710,451.5C 717.799,454.562 719.299,459.395 714.5,466C 708.684,467.763 704.684,465.596 702.5,459.5C 702.709,458.914 703.043,458.414 703.5,458C 697.681,456.876 695.515,453.376 697,447.5C 698.5,445.531 700.333,444.198 702.5,443.5 Z M 702.5,450.5 C 702.511,452.686 703.511,453.519 705.5,453C 704.922,451.583 703.922,450.75 702.5,450.5 Z M 708.5,457.5 C 708.826,460.001 710.159,461.168 712.5,461C 711.468,459.373 710.134,458.207 708.5,457.5 Z"/></g>
<g><path style="opacity:0.774" fill="#009229" d="M 638.5,471.5 C 638.707,474.241 639.707,476.574 641.5,478.5C 641.402,480.553 642.069,482.22 643.5,483.5C 643.328,484.492 643.662,485.158 644.5,485.5C 644.402,487.553 645.069,489.22 646.5,490.5C 647.932,495.478 649.932,500.144 652.5,504.5C 652.866,506.905 653.533,509.238 654.5,511.5C 654.41,513.425 653.41,514.592 651.5,515C 652.737,515.232 653.737,515.732 654.5,516.5C 649.905,523.102 644.905,529.435 639.5,535.5C 636.75,531.668 634.25,527.668 632,523.5C 557.608,552.297 481.108,559.464 402.5,545C 367.207,538.459 333.707,526.959 302,510.5C 301.333,509.5 301.333,508.5 302,507.5C 310.5,487.167 319,466.833 327.5,446.5C 328.242,445.713 329.075,445.047 330,444.5C 427.98,489.408 526.147,489.741 624.5,445.5C 625.442,445.608 626.275,445.941 627,446.5C 630.565,455.062 634.399,463.396 638.5,471.5 Z M 331.5,451.5 C 418.254,489.829 506.587,493.663 596.5,463C 605.64,459.846 614.474,456.013 623,451.5C 631.496,470.983 639.996,490.483 648.5,510C 602.945,531.389 554.945,543.389 504.5,546C 435.618,549.798 369.952,537.132 307.5,508C 315.6,489.195 323.6,470.362 331.5,451.5 Z M 607.5,479.5 C 611.059,484.794 613.726,490.627 615.5,497C 614.352,498.726 613.185,498.559 612,496.5C 608.895,491.057 607.395,485.391 607.5,479.5 Z M 373.5,489.5 C 374.497,489.47 375.164,489.97 375.5,491C 374.233,496.234 372.733,501.401 371,506.5C 369.529,508.872 368.363,508.872 367.5,506.5C 368.726,500.486 370.726,494.819 373.5,489.5 Z M 518.5,503.5 C 519.496,503.414 520.329,503.748 521,504.5C 521.814,506.902 521.647,509.235 520.5,511.5C 519.619,508.87 518.952,506.203 518.5,503.5 Z M 495.5,514.5 C 496.249,515.531 496.915,516.698 497.5,518C 497.167,518.167 496.833,518.333 496.5,518.5C 495.571,517.311 495.238,515.978 495.5,514.5 Z"/></g>
<g><path style="opacity:0.801" fill="#009229" d="M 686.5,455.5 C 692.684,454.878 695.684,457.378 695.5,463C 704.07,466.399 705.403,471.399 699.5,478C 692.672,478.68 689.005,475.514 688.5,468.5C 682.658,466.8 681.158,463.134 684,457.5C 684.995,456.934 685.828,456.267 686.5,455.5 Z M 687.5,461.5 C 688.267,462.172 688.934,463.005 689.5,464C 691.547,464.054 691.547,463.054 689.5,461C 688.563,460.308 687.897,460.475 687.5,461.5 Z M 693.5,469.5 C 694.265,470.66 695.265,471.66 696.5,472.5C 696.833,472.167 697.167,471.833 697.5,471.5C 696.601,469.159 695.268,468.493 693.5,469.5 Z"/></g>
<g><path style="opacity:0.794" fill="#009229" d="M 268.5,456.5 C 270.729,457.055 272.395,458.389 273.5,460.5C 270.691,464.477 267.691,468.31 264.5,472C 265.603,473.68 265.27,475.18 263.5,476.5C 262.726,477.711 261.893,477.711 261,476.5C 258.603,480.272 256.436,479.938 254.5,475.5C 254.977,474.522 255.643,473.689 256.5,473C 254.812,471.312 253.145,469.645 251.5,468C 256.857,463.659 262.524,459.826 268.5,456.5 Z"/></g>
<g><path style="opacity:0.771" fill="#009229" d="M 674.5,464.5 C 675.675,464.281 676.675,464.614 677.5,465.5C 682.233,471.68 686.4,478.014 690,484.5C 688.745,485.211 687.579,486.044 686.5,487C 685.668,487.688 685.002,487.521 684.5,486.5C 681.822,481.812 678.656,477.479 675,473.5C 674.586,473.957 674.086,474.291 673.5,474.5C 669.51,470.784 669.844,467.45 674.5,464.5 Z"/></g>
<g><path style="opacity:0.789" fill="#009229" d="M 278.5,466.5 C 286.028,466.848 288.528,470.515 286,477.5C 283.588,481.916 280.422,485.749 276.5,489C 267.853,490.205 265.019,486.705 268,478.5C 270.649,473.689 274.149,469.689 278.5,466.5 Z M 279.5,472.5 C 277.053,475.885 274.72,479.385 272.5,483C 273.167,483.667 273.833,483.667 274.5,483C 277.223,479.943 279.556,476.61 281.5,473C 280.906,472.536 280.239,472.369 279.5,472.5 Z"/></g>
<g><path style="opacity:0.839" fill="#009229" d="M 347.5,494.5 C 345.612,495.94 343.945,497.606 342.5,499.5C 341.686,497.234 341.186,494.9 341,492.5C 339.369,496.756 338.036,501.09 337,505.5C 334.223,504.364 331.723,502.864 329.5,501C 332.983,490.359 337.316,480.192 342.5,470.5C 344.167,471.167 345.833,471.833 347.5,472.5C 346.88,483.58 349.213,484.747 354.5,476C 357.174,476.153 359.84,476.653 362.5,477.5C 358.902,487.955 354.902,498.288 350.5,508.5C 350,508.833 349.5,509.167 349,509.5C 346.423,509.165 344.256,508.165 342.5,506.5C 344.179,502.479 345.846,498.479 347.5,494.5 Z"/></g>
<g><path style="opacity:0.846" fill="#009229" d="M 603.5,472.5 C 612.027,471.514 617.527,475.181 620,483.5C 621.556,487.558 622.723,491.725 623.5,496C 623.068,503.774 619.068,507.107 611.5,506C 603.714,500.199 599.381,492.366 598.5,482.5C 598.579,478.342 600.245,475.009 603.5,472.5 Z M 607.5,479.5 C 607.395,485.391 608.895,491.057 612,496.5C 613.185,498.559 614.352,498.726 615.5,497C 613.726,490.627 611.059,484.794 607.5,479.5 Z"/></g>
<g><path style="opacity:0.81" fill="#009229" d="M 582.5,480.5 C 584.167,480.5 585.833,480.5 587.5,480.5C 589.626,488.214 591.96,495.881 594.5,503.5C 596.718,504.057 599.051,504.057 601.5,503.5C 601.586,505.677 602.253,507.677 603.5,509.5C 599.709,511.802 595.542,513.469 591,514.5C 590.228,514.355 589.561,514.022 589,513.5C 585.688,503.231 582.188,493.064 578.5,483C 579.858,482.066 581.192,481.232 582.5,480.5 Z"/></g>
<g><path style="opacity:0.843" fill="#009229" d="M 371.5,481.5 C 378.992,481.325 382.992,484.991 383.5,492.5C 382.724,501.212 379.391,508.712 373.5,515C 364.744,518.097 360.078,514.93 359.5,505.5C 359.913,495.528 363.913,487.528 371.5,481.5 Z M 373.5,489.5 C 370.726,494.819 368.726,500.486 367.5,506.5C 368.363,508.872 369.529,508.872 371,506.5C 372.733,501.401 374.233,496.234 375.5,491C 375.164,489.97 374.497,489.47 373.5,489.5 Z"/></g>
<g><path style="opacity:0.821" fill="#009229" d="M 568.5,520.5 C 565.036,509.647 562.036,498.647 559.5,487.5C 563.785,486.376 568.118,485.376 572.5,484.5C 574.733,485.809 576.067,487.809 576.5,490.5C 574.012,491.688 571.678,493.021 569.5,494.5C 569.977,495.931 570.643,497.264 571.5,498.5C 573.167,497.833 574.833,497.167 576.5,496.5C 580.311,502.185 578.978,505.351 572.5,506C 573.167,507.333 573.833,508.667 574.5,510C 577.06,509.562 579.56,509.729 582,510.5C 582.662,512.813 583.162,515.146 583.5,517.5C 578.462,518.343 573.462,519.343 568.5,520.5 Z"/></g>
<g><path style="opacity:0.845" fill="#009229" d="M 390.5,486.5 C 393.067,487.475 395.733,488.142 398.5,488.5C 398.85,500.887 399.85,501.22 401.5,489.5C 404.127,490.092 406.794,490.425 409.5,490.5C 407.423,501.883 405.09,513.216 402.5,524.5C 399.833,524.167 397.167,523.833 394.5,523.5C 394.575,519.103 394.075,514.77 393,510.5C 392.479,513.919 391.645,517.252 390.5,520.5C 387.679,521.739 385.013,521.405 382.5,519.5C 385.326,508.529 387.993,497.529 390.5,486.5 Z"/></g>
<g><path style="opacity:0.829" fill="#009229" d="M 550.5,489.5 C 552.167,489.5 553.833,489.5 555.5,489.5C 557.372,500.859 559.372,512.192 561.5,523.5C 558.794,523.575 556.127,523.908 553.5,524.5C 552.777,519.827 551.943,515.16 551,510.5C 550.818,513.226 550.318,515.893 549.5,518.5C 547.854,517.221 546.687,515.555 546,513.5C 545.346,512.304 544.846,512.304 544.5,513.5C 545.673,517.512 546.506,521.512 547,525.5C 544.262,526.482 541.428,527.148 538.5,527.5C 537.256,516.367 535.256,505.367 532.5,494.5C 534.947,492.777 537.613,492.277 540.5,493C 542.377,495.251 543.877,497.751 545,500.5C 546.127,497.623 546.794,494.623 547,491.5C 548.302,490.915 549.469,490.249 550.5,489.5 Z"/></g>
<g><path style="opacity:0.815" fill="#009229" d="M 413.5,492.5 C 419.191,492.98 424.858,493.646 430.5,494.5C 430.425,497.206 430.092,499.873 429.5,502.5C 427.833,502.5 426.167,502.5 424.5,502.5C 423.475,510.508 422.308,518.508 421,526.5C 417.748,528.097 414.915,527.597 412.5,525C 413.996,516.855 415.33,508.688 416.5,500.5C 415.167,500.5 413.833,500.5 412.5,500.5C 413.092,497.873 413.425,495.206 413.5,492.5 Z"/></g>
<g><path style="opacity:0.831" fill="#009229" d="M 434.5,495.5 C 439.482,496.053 444.482,496.387 449.5,496.5C 449.5,499.167 449.5,501.833 449.5,504.5C 446.833,504.5 444.167,504.5 441.5,504.5C 441.5,506.167 441.5,507.833 441.5,509.5C 443.5,509.5 445.5,509.5 447.5,509.5C 447.5,512.167 447.5,514.833 447.5,517.5C 445.167,517.5 442.833,517.5 440.5,517.5C 440.5,519.167 440.5,520.833 440.5,522.5C 442.833,522.5 445.167,522.5 447.5,522.5C 447.037,525.482 446.704,528.482 446.5,531.5C 441.515,530.752 436.515,530.085 431.5,529.5C 432.139,518.132 433.139,506.799 434.5,495.5 Z"/></g>
<g><path style="opacity:0.839" fill="#009229" d="M 521.5,522.5 C 522.825,529.17 520.158,531.836 513.5,530.5C 512.448,519.133 511.114,507.8 509.5,496.5C 514.149,495.705 518.816,495.539 523.5,496C 528.13,498.585 530.463,502.585 530.5,508C 530.18,510.799 529.18,513.299 527.5,515.5C 529.5,519.5 531.5,523.5 533.5,527.5C 530.538,529.034 527.538,529.367 524.5,528.5C 523.481,526.396 522.481,524.396 521.5,522.5 Z M 518.5,503.5 C 518.952,506.203 519.619,508.87 520.5,511.5C 521.647,509.235 521.814,506.902 521,504.5C 520.329,503.748 519.496,503.414 518.5,503.5 Z"/></g>
<g><path style="opacity:0.811" fill="#009229" d="M 474.5,497.5 C 476.861,497.674 479.194,498.007 481.5,498.5C 481.5,501.167 481.5,503.833 481.5,506.5C 479.248,505.667 477.081,505.667 475,506.5C 473.219,512.104 473.053,517.771 474.5,523.5C 476.484,524.706 478.484,524.706 480.5,523.5C 481.833,526.167 481.833,528.833 480.5,531.5C 471.394,534.36 466.227,531.027 465,521.5C 463.543,513.906 464.877,506.906 469,500.5C 470.876,499.391 472.709,498.391 474.5,497.5 Z"/></g>
<g><path style="opacity:0.838" fill="#009229" d="M 490.5,497.5 C 493.833,497.5 497.167,497.5 500.5,497.5C 502.693,508.605 505.36,519.605 508.5,530.5C 505.572,531.484 502.572,531.817 499.5,531.5C 500.543,526.536 498.876,524.869 494.5,526.5C 494.5,528.5 494.5,530.5 494.5,532.5C 491.833,532.5 489.167,532.5 486.5,532.5C 487.833,520.833 489.167,509.167 490.5,497.5 Z M 495.5,514.5 C 495.238,515.978 495.571,517.311 496.5,518.5C 496.833,518.333 497.167,518.167 497.5,518C 496.915,516.698 496.249,515.531 495.5,514.5 Z"/></g>
<g><path style="opacity:0.791" fill="#009229" d="M 300.5,514.5 C 307.185,518.838 314.519,521.505 322.5,522.5C 320.699,527.159 318.199,531.492 315,535.5C 309.14,529.152 304.307,522.152 300.5,514.5 Z"/></g>
<g><path style="opacity:0.845" fill="#005fc0" d="M 134.5,595.5 C 141.175,595.334 147.842,595.5 154.5,596C 163.115,599.279 165.948,605.446 163,614.5C 161.019,617.745 158.186,619.911 154.5,621C 150.848,621.499 147.182,621.665 143.5,621.5C 143.5,625.167 143.5,628.833 143.5,632.5C 140.5,632.5 137.5,632.5 134.5,632.5C 134.5,620.167 134.5,607.833 134.5,595.5 Z M 143.5,603.5 C 145.67,604.768 147.837,604.768 150,603.5C 155.755,605.487 156.589,608.653 152.5,613C 149.518,613.498 146.518,613.665 143.5,613.5C 143.5,610.167 143.5,606.833 143.5,603.5 Z"/></g>
<g><path style="opacity:0.835" fill="#005fc0" d="M 190.5,595.5 C 197.841,595.334 205.174,595.5 212.5,596C 220.21,598.919 223.043,604.419 221,612.5C 219.468,615.524 217.301,618.024 214.5,620C 217.29,623.746 219.957,627.579 222.5,631.5C 219.216,632.657 215.882,632.824 212.5,632C 210.052,627.885 207.219,624.052 204,620.5C 202.644,621.38 201.144,621.714 199.5,621.5C 199.5,625.167 199.5,628.833 199.5,632.5C 196.5,632.5 193.5,632.5 190.5,632.5C 190.5,620.167 190.5,607.833 190.5,595.5 Z M 206.5,603.5 C 212.358,604.377 213.691,607.211 210.5,612C 206.848,612.499 203.182,612.665 199.5,612.5C 199.5,609.833 199.5,607.167 199.5,604.5C 202.059,604.802 204.393,604.468 206.5,603.5 Z"/></g>
<g><path style="opacity:0.825" fill="#005fc0" d="M 249.5,595.5 C 258.5,595.5 267.5,595.5 276.5,595.5C 276.5,598.167 276.5,600.833 276.5,603.5C 270.5,603.5 264.5,603.5 258.5,603.5C 258.5,605.5 258.5,607.5 258.5,609.5C 263.833,609.5 269.167,609.5 274.5,609.5C 274.5,612.167 274.5,614.833 274.5,617.5C 269.167,617.5 263.833,617.5 258.5,617.5C 258.5,619.833 258.5,622.167 258.5,624.5C 264.833,624.5 271.167,624.5 277.5,624.5C 277.768,627.119 277.435,629.619 276.5,632C 267.506,632.5 258.506,632.666 249.5,632.5C 249.5,620.167 249.5,607.833 249.5,595.5 Z"/></g>
<g><path style="opacity:0.815" fill="#005fc0" d="M 305.5,595.5 C 314.833,595.5 324.167,595.5 333.5,595.5C 333.777,598.448 333.444,601.281 332.5,604C 326.584,604.807 320.75,604.641 315,603.5C 314.503,605.81 314.337,608.143 314.5,610.5C 319.833,610.5 325.167,610.5 330.5,610.5C 330.5,613.167 330.5,615.833 330.5,618.5C 325.167,618.5 319.833,618.5 314.5,618.5C 314.5,623.167 314.5,627.833 314.5,632.5C 311.5,632.5 308.5,632.5 305.5,632.5C 305.5,620.167 305.5,607.833 305.5,595.5 Z"/></g>
<g><path style="opacity:0.837" fill="#005fc0" d="M 361.5,595.5 C 370.5,595.5 379.5,595.5 388.5,595.5C 388.5,598.167 388.5,600.833 388.5,603.5C 382.158,603.334 375.825,603.5 369.5,604C 370.833,605.667 370.833,607.333 369.5,609C 375.157,609.499 380.824,609.666 386.5,609.5C 386.5,612.167 386.5,614.833 386.5,617.5C 380.824,617.334 375.157,617.501 369.5,618C 370.423,620.041 370.756,622.208 370.5,624.5C 376.5,624.5 382.5,624.5 388.5,624.5C 388.5,627.167 388.5,629.833 388.5,632.5C 379.5,632.5 370.5,632.5 361.5,632.5C 361.5,620.167 361.5,607.833 361.5,595.5 Z"/></g>
<g><path style="opacity:0.757" fill="#005fc0" d="M 417.5,595.5 C 420.5,595.5 423.5,595.5 426.5,595.5C 426.5,607.833 426.5,620.167 426.5,632.5C 423.5,632.5 420.5,632.5 417.5,632.5C 417.5,620.167 417.5,607.833 417.5,595.5 Z"/></g>
<g><path style="opacity:0.818" fill="#005fc0" d="M 454.5,595.5 C 464.167,595.5 473.833,595.5 483.5,595.5C 483.5,598.5 483.5,601.5 483.5,604.5C 480.223,604.784 477.057,604.451 474,603.5C 473.5,613.161 473.334,622.828 473.5,632.5C 470.5,632.5 467.5,632.5 464.5,632.5C 464.666,622.828 464.5,613.161 464,603.5C 455.842,606.826 452.676,604.159 454.5,595.5 Z"/></g>
<g><path style="opacity:0.851" fill="#005fc0" d="M 511.5,595.5 C 514.5,595.5 517.5,595.5 520.5,595.5C 520.334,603.507 520.5,611.507 521,619.5C 524.878,625.719 529.211,626.052 534,620.5C 534.5,612.173 534.666,603.84 534.5,595.5C 537.5,595.5 540.5,595.5 543.5,595.5C 543.92,605.247 543.42,614.914 542,624.5C 538.979,630.011 534.312,632.678 528,632.5C 521.267,632.968 516.267,630.302 513,624.5C 511.58,614.914 511.08,605.247 511.5,595.5 Z"/></g>
<g><path style="opacity:0.857" fill="#005fc0" d="M 572.5,595.5 C 579.508,595.334 586.508,595.5 593.5,596C 602.669,599.151 605.502,605.317 602,614.5C 600.316,616.351 598.483,618.018 596.5,619.5C 599.167,623.5 601.833,627.5 604.5,631.5C 601.216,632.657 597.882,632.824 594.5,632C 592.291,628.414 589.957,624.914 587.5,621.5C 585.604,620.534 583.604,620.201 581.5,620.5C 581.5,624.5 581.5,628.5 581.5,632.5C 578.5,632.5 575.5,632.5 572.5,632.5C 572.5,620.167 572.5,607.833 572.5,595.5 Z M 581.5,603.5 C 585.059,603.284 588.559,603.618 592,604.5C 595.037,606.813 595.204,609.313 592.5,612C 588.848,612.499 585.182,612.665 581.5,612.5C 581.5,609.5 581.5,606.5 581.5,603.5 Z"/></g>
<g><path style="opacity:0.854" fill="#005fc0" d="M 643.5,595.5 C 646.572,595.183 649.572,595.516 652.5,596.5C 657.305,608.249 662.305,619.915 667.5,631.5C 660.149,634.605 656.149,632.271 655.5,624.5C 650.456,624.173 645.456,624.506 640.5,625.5C 638.809,631.892 634.809,633.892 628.5,631.5C 633.896,619.638 638.896,607.638 643.5,595.5 Z M 647.5,607.5 C 649.006,609.975 650.339,612.642 651.5,615.5C 649.257,616.474 646.924,616.808 644.5,616.5C 645.213,613.406 646.213,610.406 647.5,607.5 Z"/></g>
<g><path style="opacity:0.855" fill="#005fc0" d="M 731.5,595.5 C 737.842,595.334 744.175,595.5 750.5,596C 764.477,601.45 768.311,610.95 762,624.5C 758.579,628.257 754.412,630.757 749.5,632C 743.509,632.499 737.509,632.666 731.5,632.5C 731.5,620.167 731.5,607.833 731.5,595.5 Z M 740.5,603.5 C 744.412,603.584 748.412,604.417 752.5,606C 756.5,611.333 756.5,616.667 752.5,622C 748.637,623.354 744.637,623.854 740.5,623.5C 740.5,616.833 740.5,610.167 740.5,603.5 Z"/></g>
<g><path style="opacity:0.842" fill="#005fc0" d="M 793.5,595.5 C 802.833,595.5 812.167,595.5 821.5,595.5C 821.5,598.167 821.5,600.833 821.5,603.5C 815.167,603.5 808.833,603.5 802.5,603.5C 802.5,605.5 802.5,607.5 802.5,609.5C 807.833,609.5 813.167,609.5 818.5,609.5C 818.5,612.167 818.5,614.833 818.5,617.5C 813.167,617.5 807.833,617.5 802.5,617.5C 802.5,619.5 802.5,621.5 802.5,623.5C 808.833,623.5 815.167,623.5 821.5,623.5C 821.5,626.5 821.5,629.5 821.5,632.5C 812.167,632.5 802.833,632.5 793.5,632.5C 793.5,620.167 793.5,607.833 793.5,595.5 Z"/></g>
<g><path style="opacity:0.965" fill="#005fc0" d="M 371.5,660.5 C 389.066,659.423 405.399,663.256 420.5,672C 433.762,683.732 440.928,698.565 442,716.5C 444.186,735.085 442.852,753.418 438,771.5C 430.258,791.461 415.758,802.961 394.5,806C 338.816,813.813 311.482,789.646 312.5,733.5C 311.828,716.505 315.328,700.505 323,685.5C 335.17,669.332 351.337,660.999 371.5,660.5 Z M 375.5,691.5 C 390.405,691.899 398.905,699.566 401,714.5C 403.944,727.861 403.944,741.194 401,754.5C 396.438,773.412 384.938,779.912 366.5,774C 359.114,768.403 354.947,760.903 354,751.5C 351.757,738.093 352.09,724.76 355,711.5C 357.872,700.458 364.705,693.791 375.5,691.5 Z"/></g>
<g><path style="opacity:0.961" fill="#005fc0" d="M 134.5,663.5 C 148.079,663.177 161.579,663.51 175,664.5C 188.257,692.015 201.257,719.682 214,747.5C 227.024,719.783 240.357,692.117 254,664.5C 266.754,663.511 279.587,663.178 292.5,663.5C 294.332,710.476 295.999,757.476 297.5,804.5C 284.833,804.5 272.167,804.5 259.5,804.5C 258.438,778.84 257.271,753.173 256,727.5C 247.528,751.922 237.694,775.755 226.5,799C 218.147,799.832 209.813,799.665 201.5,798.5C 191.157,774.817 181.657,750.817 173,726.5C 172.588,752.504 172.088,778.504 171.5,804.5C 158.5,804.5 145.5,804.5 132.5,804.5C 133.253,768.495 134.253,732.495 135.5,696.5C 135.355,685.49 135.022,674.49 134.5,663.5 Z"/></g>
<g><path style="opacity:0.963" fill="#005fc0" d="M 488.5,663.5 C 492.182,663.335 495.848,663.501 499.5,664C 515.292,687.746 530.459,711.912 545,736.5C 545.333,712.5 545.667,688.5 546,664.5C 559.087,663.511 572.254,663.177 585.5,663.5C 585.5,710.5 585.5,757.5 585.5,804.5C 572.163,804.667 558.829,804.5 545.5,804C 529.506,779.338 514.34,754.171 500,728.5C 499.5,753.831 499.333,779.164 499.5,804.5C 486.5,804.5 473.5,804.5 460.5,804.5C 461.049,757.8 460.382,711.133 458.5,664.5C 468.681,664.827 478.681,664.494 488.5,663.5 Z"/></g>
<g><path style="opacity:0.959" fill="#005fc0" d="M 595.5,663.5 C 632.5,663.5 669.5,663.5 706.5,663.5C 705.499,673.516 704.499,683.516 703.5,693.5C 692.186,694.499 680.853,694.832 669.5,694.5C 669.5,731.167 669.5,767.833 669.5,804.5C 656.5,804.5 643.5,804.5 630.5,804.5C 630.5,767.833 630.5,731.167 630.5,694.5C 619.5,694.5 608.5,694.5 597.5,694.5C 596.922,684.16 596.255,673.826 595.5,663.5 Z"/></g>
<g><path style="opacity:0.966" fill="#005fc0" d="M 715.5,663.5 C 750.833,663.5 786.167,663.5 821.5,663.5C 820.449,673.837 819.449,684.17 818.5,694.5C 798.167,694.5 777.833,694.5 757.5,694.5C 757.5,702.833 757.5,711.167 757.5,719.5C 773.5,719.5 789.5,719.5 805.5,719.5C 805.23,729.529 804.564,739.529 803.5,749.5C 788.167,749.5 772.833,749.5 757.5,749.5C 757.5,757.833 757.5,766.167 757.5,774.5C 779.5,774.5 801.5,774.5 823.5,774.5C 823.5,784.5 823.5,794.5 823.5,804.5C 788.5,804.5 753.5,804.5 718.5,804.5C 718.667,767.165 718.5,729.832 718,692.5C 717.141,682.827 716.307,673.16 715.5,663.5 Z"/></g>
<g><path style="opacity:0.961" fill="#005fc0" d="M -0.5,904.5 C -0.5,896.833 -0.5,889.167 -0.5,881.5C 2.13008,840.707 23.9634,820.374 65,820.5C 105.185,819.855 126.685,839.521 129.5,879.5C 116.15,879.833 102.817,879.499 89.5,878.5C 88.1095,869.555 84.4428,861.721 78.5,855C 62.9717,847.287 51.4717,851.12 44,866.5C 37.6398,886.403 38.3064,906.07 46,925.5C 52.1554,934.651 60.6554,937.818 71.5,935C 76.8643,932.973 81.031,929.473 84,924.5C 86.3725,919.501 88.2059,914.334 89.5,909C 102.829,908.5 116.163,908.333 129.5,908.5C 125.572,947.257 104.072,966.59 65,966.5C 23.5256,966.525 1.69225,945.858 -0.5,904.5 Z"/></g>
<g><path style="opacity:0.965" fill="#005fc0" d="M 955.5,882.5 C 955.5,890.167 955.5,897.833 955.5,905.5C 954.162,918.834 950.329,931.501 944,943.5C 935.475,954.675 924.308,961.842 910.5,965C 853.14,974.959 824.473,950.959 824.5,893C 823.623,839.877 849.623,815.877 902.5,821C 924.656,822.513 940.156,833.346 949,853.5C 952.02,863.113 954.186,872.78 955.5,882.5 Z M 883.5,851.5 C 900.112,849.051 909.946,856.051 913,872.5C 916.182,886.515 916.182,900.515 913,914.5C 907.583,934.459 895.417,940.292 876.5,932C 870.182,925.861 866.682,918.361 866,909.5C 863.803,896.765 864.137,884.098 867,871.5C 869.007,861.75 874.507,855.084 883.5,851.5 Z"/></g>
<g><path style="opacity:0.961" fill="#005fc0" d="M 182.5,823.5 C 194.414,823.179 206.247,823.512 218,824.5C 232.333,860.833 246.667,897.167 261,933.5C 265.911,943.657 271.078,953.657 276.5,963.5C 262.167,964.833 247.833,964.833 233.5,963.5C 231.2,957.909 229.2,952.242 227.5,946.5C 211.482,946.51 195.482,946.676 179.5,947C 178.594,944.553 177.761,942.053 177,939.5C 174.221,947.841 171.054,956.007 167.5,964C 154.838,964.5 142.171,964.667 129.5,964.5C 147.363,917.578 165.03,870.578 182.5,823.5 Z M 200.5,874.5 C 204.112,887.589 208.779,900.422 214.5,913C 205.482,913.832 196.482,913.665 187.5,912.5C 192.643,900.07 196.976,887.404 200.5,874.5 Z"/></g>
<g><path style="opacity:0.958" fill="#005fc0" d="M 281.5,823.5 C 307.169,823.333 332.835,823.5 358.5,824C 384.615,826.277 397.615,840.444 397.5,866.5C 398.627,888.102 389.627,903.602 370.5,913C 372.663,917.483 374.83,921.983 377,926.5C 380.653,932.486 385.986,935.486 393,935.5C 397.452,935.399 401.619,934.399 405.5,932.5C 407.582,938.673 410.249,944.673 413.5,950.5C 398.696,967.115 381.029,970.949 360.5,962C 350.961,955.431 344.461,946.598 341,935.5C 338.696,929.283 336.863,922.949 335.5,916.5C 331.5,916.5 327.5,916.5 323.5,916.5C 323.5,932.5 323.5,948.5 323.5,964.5C 310.167,964.5 296.833,964.5 283.5,964.5C 283.667,924.165 283.5,883.832 283,843.5C 282.289,836.844 281.789,830.178 281.5,823.5 Z M 323.5,854.5 C 330.841,854.334 338.174,854.5 345.5,855C 351.729,855.574 355.896,858.74 358,864.5C 360.558,873.529 357.724,880.029 349.5,884C 340.541,885.431 331.541,885.765 322.5,885C 323.486,874.916 323.819,864.749 323.5,854.5 Z"/></g>
<g><path style="opacity:0.962" fill="#005fc0" d="M 415.5,823.5 C 429.412,823.177 443.246,823.51 457,824.5C 470,852.167 483,879.833 496,907.5C 508.605,879.622 521.771,851.955 535.5,824.5C 548.483,823.501 561.483,823.168 574.5,823.5C 576.197,870.489 577.53,917.489 578.5,964.5C 565.833,964.5 553.167,964.5 540.5,964.5C 540.074,938.489 539.24,912.489 538,886.5C 528.764,910.634 519.264,934.634 509.5,958.5C 500.5,958.5 491.5,958.5 482.5,958.5C 474.572,937.305 466.072,916.305 457,895.5C 456.333,892.833 455.667,890.167 455,887.5C 453.821,913.153 453.321,938.82 453.5,964.5C 440.167,964.5 426.833,964.5 413.5,964.5C 414.774,927.335 416.107,890.169 417.5,853C 417.465,843.113 416.798,833.28 415.5,823.5 Z"/></g>
<g><path style="opacity:0.955" fill="#005fc0" d="M 597.5,823.5 C 632.5,823.5 667.5,823.5 702.5,823.5C 701.778,833.829 701.111,844.163 700.5,854.5C 679.833,854.5 659.167,854.5 638.5,854.5C 638.5,862.5 638.5,870.5 638.5,878.5C 654.833,878.5 671.167,878.5 687.5,878.5C 686.762,888.544 685.762,898.544 684.5,908.5C 669.181,909.499 653.848,909.833 638.5,909.5C 638.5,917.5 638.5,925.5 638.5,933.5C 660.5,933.5 682.5,933.5 704.5,933.5C 704.5,943.833 704.5,954.167 704.5,964.5C 669.5,964.5 634.5,964.5 599.5,964.5C 600.037,917.47 599.37,870.47 597.5,823.5 Z"/></g>
<g><path style="opacity:0.942" fill="#005fc0" d="M 720.5,823.5 C 733.5,823.5 746.5,823.5 759.5,823.5C 759.5,860.167 759.5,896.833 759.5,933.5C 778.5,933.5 797.5,933.5 816.5,933.5C 816.5,943.833 816.5,954.167 816.5,964.5C 783.5,964.5 750.5,964.5 717.5,964.5C 717.834,957.493 718.334,950.493 719,943.5C 719.173,903.429 719.673,863.429 720.5,823.5 Z"/></g>
<g><path style="opacity:0.467" fill="#005fc0" d="M 438.5,967.5 C 443.032,967.069 447.365,967.569 451.5,969C 446.833,969.667 442.167,969.667 437.5,969C 438.056,968.617 438.389,968.117 438.5,967.5 Z"/></g>
<g><path style="opacity:0.817" fill="#ffdb00" d="M 456.5,988.5 C 460.514,988.334 464.514,988.501 468.5,989C 470.628,992.13 473.128,994.963 476,997.5C 476.483,998.448 476.649,999.448 476.5,1000.5C 471.425,1001.09 466.758,1000.09 462.5,997.5C 457.859,1000.47 452.859,1001.13 447.5,999.5C 450.902,996.105 453.902,992.438 456.5,988.5 Z"/></g>
<g><path style="opacity:0.903" fill="#fede00" d="M 37.5,1001.5 C 44.8773,1000.69 51.8773,1001.86 58.5,1005C 60.8878,1007.05 62.8878,1009.38 64.5,1012C 61.8015,1015.1 58.6348,1017.6 55,1019.5C 52.765,1017.63 50.265,1016.13 47.5,1015C 36.7166,1014.46 32.2166,1019.63 34,1030.5C 36.5492,1037.36 41.3826,1039.86 48.5,1038C 50.6772,1036.49 52.8439,1034.99 55,1033.5C 58.6256,1035.62 62.1256,1037.96 65.5,1040.5C 57.2437,1051.37 46.577,1054.54 33.5,1050C 19.0146,1041.27 15.1812,1029.1 22,1013.5C 26.0197,1007.92 31.1864,1003.92 37.5,1001.5 Z"/></g>
<g><path style="opacity:0.911" fill="#fede00" d="M 98.5,1001.5 C 120.49,999.662 131.323,1009.66 131,1031.5C 125.634,1047.61 114.468,1054.11 97.5,1051C 80.7264,1043.94 75.5598,1031.77 82,1014.5C 85.9388,1008.05 91.4388,1003.71 98.5,1001.5 Z M 101.5,1014.5 C 113.307,1014.14 118.14,1019.81 116,1031.5C 112.677,1037.91 107.511,1040.07 100.5,1038C 90.8533,1029.76 91.1866,1021.93 101.5,1014.5 Z"/></g>
<g><path style="opacity:0.9" fill="#fede00" d="M 247.5,1001.5 C 253.035,1002.1 258.535,1002.76 264,1003.5C 267.137,1012.58 270.47,1021.58 274,1030.5C 277.474,1021.24 280.641,1011.91 283.5,1002.5C 288.565,1002.78 293.565,1002.45 298.5,1001.5C 298.833,1002 299.167,1002.5 299.5,1003C 293.069,1018.79 286.735,1034.63 280.5,1050.5C 275.95,1051.8 271.45,1051.8 267,1050.5C 260.004,1034.34 253.504,1018.01 247.5,1001.5 Z"/></g>
<g><path style="opacity:0.915" fill="#fede00" d="M 330.5,1001.5 C 349.319,999.664 360.319,1008 363.5,1026.5C 359.557,1047.44 347.223,1055.27 326.5,1050C 311.06,1041.75 306.894,1029.59 314,1013.5C 318.279,1007.71 323.779,1003.71 330.5,1001.5 Z M 333.5,1014.5 C 346.825,1015.34 350.991,1022.01 346,1034.5C 339.38,1040.06 333.047,1039.73 327,1033.5C 323.545,1025.02 325.712,1018.69 333.5,1014.5 Z"/></g>
<g><path style="opacity:0.903" fill="#fede00" d="M 398.5,1001.5 C 406.377,1000.5 413.711,1002 420.5,1006C 422.557,1007.72 424.224,1009.72 425.5,1012C 422.287,1014.88 418.787,1017.38 415,1019.5C 407.359,1012.22 400.693,1012.89 395,1021.5C 393.836,1026.73 394.669,1031.56 397.5,1036C 404.262,1039.75 410.429,1038.92 416,1033.5C 418.983,1035.49 421.983,1037.49 425,1039.5C 424.912,1042.64 423.412,1045.14 420.5,1047C 407.779,1053.94 395.946,1052.77 385,1043.5C 374.198,1024.41 378.698,1010.41 398.5,1001.5 Z"/></g>
<g><path style="opacity:0.901" fill="#fede00" d="M 574.5,1001.5 C 584.207,1000.18 592.874,1002.52 600.5,1008.5C 598.192,1011.97 595.692,1015.31 593,1018.5C 589.222,1015.86 585.056,1014.19 580.5,1013.5C 574.471,1014.52 574.137,1016.35 579.5,1019C 585.518,1020.01 591.184,1022.01 596.5,1025C 602.164,1030.78 602.997,1037.28 599,1044.5C 596.222,1047.81 592.722,1049.97 588.5,1051C 579.679,1052.53 571.346,1051.19 563.5,1047C 561.673,1046.1 560.34,1044.77 559.5,1043C 561.638,1039.86 564.138,1037.03 567,1034.5C 572.562,1038.43 578.729,1039.93 585.5,1039C 587.592,1038.05 587.925,1036.71 586.5,1035C 579.521,1033.54 572.855,1031.21 566.5,1028C 560.836,1022.22 560.003,1015.72 564,1008.5C 566.998,1005.26 570.498,1002.93 574.5,1001.5 Z"/></g>
<g><path style="opacity:0.903" fill="#fede00" d="M 149.5,1002.5 C 154.511,1002.33 159.511,1002.5 164.5,1003C 168.377,1008.58 171.877,1014.42 175,1020.5C 178.5,1014.83 182,1009.17 185.5,1003.5C 190.792,1002.51 196.125,1002.17 201.5,1002.5C 201.5,1018.5 201.5,1034.5 201.5,1050.5C 196.5,1050.5 191.5,1050.5 186.5,1050.5C 186.666,1042.49 186.5,1034.49 186,1026.5C 182.333,1031.83 178.667,1037.17 175,1042.5C 171.084,1037 167.418,1031.34 164,1025.5C 163.5,1034.16 163.334,1042.83 163.5,1051.5C 158.833,1051.5 154.167,1051.5 149.5,1051.5C 149.5,1035.17 149.5,1018.83 149.5,1002.5 Z"/></g>
<g><path style="opacity:0.908" fill="#fede00" d="M 442.5,1002.5 C 455.833,1002.5 469.167,1002.5 482.5,1002.5C 482.5,1006.5 482.5,1010.5 482.5,1014.5C 473.833,1014.5 465.167,1014.5 456.5,1014.5C 456.5,1016.5 456.5,1018.5 456.5,1020.5C 464.167,1020.5 471.833,1020.5 479.5,1020.5C 479.5,1024.5 479.5,1028.5 479.5,1032.5C 471.833,1032.5 464.167,1032.5 456.5,1032.5C 456.5,1034.5 456.5,1036.5 456.5,1038.5C 465.167,1038.5 473.833,1038.5 482.5,1038.5C 482.5,1042.5 482.5,1046.5 482.5,1050.5C 469.167,1050.5 455.833,1050.5 442.5,1050.5C 442.5,1034.5 442.5,1018.5 442.5,1002.5 Z"/></g>
<g><path style="opacity:0.92" fill="#fede00" d="M 619.5,1002.5 C 632.5,1002.5 645.5,1002.5 658.5,1002.5C 658.5,1006.5 658.5,1010.5 658.5,1014.5C 650.167,1014.5 641.833,1014.5 633.5,1014.5C 633.5,1016.5 633.5,1018.5 633.5,1020.5C 641.167,1020.5 648.833,1020.5 656.5,1020.5C 656.5,1024.5 656.5,1028.5 656.5,1032.5C 648.833,1032.5 641.167,1032.5 633.5,1032.5C 633.5,1034.5 633.5,1036.5 633.5,1038.5C 641.833,1038.5 650.167,1038.5 658.5,1038.5C 658.5,1042.5 658.5,1046.5 658.5,1050.5C 645.5,1050.5 632.5,1050.5 619.5,1050.5C 619.5,1034.5 619.5,1018.5 619.5,1002.5 Z"/></g>
<g><path style="opacity:0.909" fill="#fede00" d="M 676.5,1002.5 C 681.511,1002.33 686.511,1002.5 691.5,1003C 695.043,1008.59 698.709,1014.09 702.5,1019.5C 706.291,1014.09 709.957,1008.59 713.5,1003C 718.489,1002.5 723.489,1002.33 728.5,1002.5C 728.5,1018.5 728.5,1034.5 728.5,1050.5C 723.5,1050.5 718.5,1050.5 713.5,1050.5C 713.666,1042.49 713.5,1034.49 713,1026.5C 709.697,1031.97 706.197,1037.3 702.5,1042.5C 698.471,1036.97 694.638,1031.3 691,1025.5C 690.5,1033.83 690.334,1042.16 690.5,1050.5C 685.833,1050.5 681.167,1050.5 676.5,1050.5C 676.5,1034.5 676.5,1018.5 676.5,1002.5 Z"/></g>
<g><path style="opacity:0.9" fill="#fede00" d="M 747.5,1002.5 C 756.839,1002.33 766.173,1002.5 775.5,1003C 784.2,1005.36 788.867,1011.03 789.5,1020C 788.666,1029.33 783.666,1035 774.5,1037C 770.514,1037.5 766.514,1037.67 762.5,1037.5C 762.5,1041.83 762.5,1046.17 762.5,1050.5C 757.5,1050.5 752.5,1050.5 747.5,1050.5C 747.5,1034.5 747.5,1018.5 747.5,1002.5 Z M 762.5,1014.5 C 766.839,1013.85 770.673,1014.85 774,1017.5C 775.212,1020.83 774.379,1023.33 771.5,1025C 768.518,1025.5 765.518,1025.66 762.5,1025.5C 762.5,1021.83 762.5,1018.17 762.5,1014.5 Z"/></g>
<g><path style="opacity:0.899" fill="#fede00" d="M 805.5,1002.5 C 815.839,1002.33 826.172,1002.5 836.5,1003C 847.377,1006.92 851.211,1014.42 848,1025.5C 845.833,1029 843,1031.83 839.5,1034C 843.043,1039.59 846.709,1045.09 850.5,1050.5C 845.533,1051.66 840.533,1051.83 835.5,1051C 831.62,1046.95 828.287,1042.45 825.5,1037.5C 823.955,1036.55 822.288,1036.21 820.5,1036.5C 820.666,1041.18 820.499,1045.85 820,1050.5C 815.263,1051.47 810.43,1051.8 805.5,1051.5C 805.5,1035.17 805.5,1018.83 805.5,1002.5 Z M 820.5,1014.5 C 824.605,1014.23 828.605,1014.73 832.5,1016C 835.167,1018.67 835.167,1021.33 832.5,1024C 828.605,1025.27 824.605,1025.77 820.5,1025.5C 820.5,1021.83 820.5,1018.17 820.5,1014.5 Z"/></g>
<g><path style="opacity:0.903" fill="#fede00" d="M 866.5,1002.5 C 879.833,1002.5 893.167,1002.5 906.5,1002.5C 906.5,1006.5 906.5,1010.5 906.5,1014.5C 897.827,1014.33 889.16,1014.5 880.5,1015C 881.833,1016.67 881.833,1018.33 880.5,1020C 888.159,1020.5 895.826,1020.67 903.5,1020.5C 903.5,1024.5 903.5,1028.5 903.5,1032.5C 895.826,1032.33 888.159,1032.5 880.5,1033C 881.833,1034.67 881.833,1036.33 880.5,1038C 889.16,1038.5 897.827,1038.67 906.5,1038.5C 906.5,1042.5 906.5,1046.5 906.5,1050.5C 893.167,1050.5 879.833,1050.5 866.5,1050.5C 866.5,1034.5 866.5,1018.5 866.5,1002.5 Z"/></g>
<g><path style="opacity:0.834" fill="#fede00" d="M 500.5,1062.5 C 499.833,1062.5 499.167,1062.5 498.5,1062.5C 497.781,1060.24 497.448,1057.9 497.5,1055.5C 500.99,1055.85 503.323,1054.35 504.5,1051C 502.527,1050.5 500.527,1050.34 498.5,1050.5C 498.5,1045.83 498.5,1041.17 498.5,1036.5C 503.5,1036.5 508.5,1036.5 513.5,1036.5C 513.87,1042.93 513.37,1049.26 512,1055.5C 511.535,1056.93 510.701,1058.1 509.5,1059C 506.541,1060.6 503.541,1061.77 500.5,1062.5 Z"/></g>
<g><path style="opacity:0.794" fill="#fede00" d="M 922.5,1036.5 C 927.5,1036.5 932.5,1036.5 937.5,1036.5C 937.5,1041.5 937.5,1046.5 937.5,1051.5C 932.821,1051.67 928.155,1051.5 923.5,1051C 922.531,1046.26 922.197,1041.43 922.5,1036.5 Z"/></g>
</svg>
